<mxfile host="app.diagrams.net" agent="Mozilla/5.0 (Windows NT 10.0; Win64; x64) AppleWebKit/537.36 (KHTML, like Gecko) Chrome/135.0.0.0 Safari/537.36 Edg/135.0.0.0" version="26.0.16">
  <diagram name="第 1 页" id="fsmmVKP39JF9mTrfSS9o">
    <mxGraphModel dx="1293" dy="949" grid="1" gridSize="10" guides="1" tooltips="1" connect="1" arrows="1" fold="1" page="1" pageScale="1" pageWidth="827" pageHeight="1169" math="0" shadow="0">
      <root>
        <mxCell id="0" />
        <mxCell id="1" parent="0" />
        <mxCell id="BIjyKwn6PLJgD-Ix_rdq-2" value="Actor" style="shape=umlActor;verticalLabelPosition=bottom;verticalAlign=top;html=1;outlineConnect=0;" vertex="1" parent="1">
          <mxGeometry x="310" y="60" width="30" height="60" as="geometry" />
        </mxCell>
        <mxCell id="BIjyKwn6PLJgD-Ix_rdq-10" value="" style="edgeStyle=orthogonalEdgeStyle;rounded=0;orthogonalLoop=1;jettySize=auto;html=1;" edge="1" parent="1" source="BIjyKwn6PLJgD-Ix_rdq-4" target="BIjyKwn6PLJgD-Ix_rdq-9">
          <mxGeometry relative="1" as="geometry" />
        </mxCell>
        <mxCell id="BIjyKwn6PLJgD-Ix_rdq-4" value="&lt;span style=&quot;color: rgba(0, 0, 0, 0.88); font-family: -apple-system, BlinkMacSystemFont, &amp;quot;Segoe UI&amp;quot;, Roboto, &amp;quot;Helvetica Neue&amp;quot;, Arial, &amp;quot;Noto Sans&amp;quot;, sans-serif, &amp;quot;Apple Color Emoji&amp;quot;, &amp;quot;Segoe UI Emoji&amp;quot;, &amp;quot;Segoe UI Symbol&amp;quot;, &amp;quot;Noto Color Emoji&amp;quot;; font-size: 13px; text-align: left; text-wrap-mode: nowrap; background-color: rgb(250, 250, 250);&quot;&gt;&lt;span style=&quot;font-size: 12px;&quot;&gt;ifinance-user-crms-prod.zhonganonline.com&lt;/span&gt;&lt;br&gt;za-crms-account-nginx&lt;/span&gt;" style="rounded=0;whiteSpace=wrap;html=1;" vertex="1" parent="1">
          <mxGeometry x="30" y="220" width="260" height="100" as="geometry" />
        </mxCell>
        <mxCell id="BIjyKwn6PLJgD-Ix_rdq-12" value="" style="edgeStyle=orthogonalEdgeStyle;rounded=0;orthogonalLoop=1;jettySize=auto;html=1;" edge="1" parent="1" source="BIjyKwn6PLJgD-Ix_rdq-5" target="BIjyKwn6PLJgD-Ix_rdq-11">
          <mxGeometry relative="1" as="geometry" />
        </mxCell>
        <mxCell id="BIjyKwn6PLJgD-Ix_rdq-5" value="&lt;span style=&quot;color: rgba(0, 0, 0, 0.88); font-family: -apple-system, BlinkMacSystemFont, &amp;quot;Segoe UI&amp;quot;, Roboto, &amp;quot;Helvetica Neue&amp;quot;, Arial, &amp;quot;Noto Sans&amp;quot;, sans-serif, &amp;quot;Apple Color Emoji&amp;quot;, &amp;quot;Segoe UI Emoji&amp;quot;, &amp;quot;Segoe UI Symbol&amp;quot;, &amp;quot;Noto Color Emoji&amp;quot;; text-align: start; text-wrap-mode: nowrap; background-color: rgb(250, 250, 250);&quot;&gt;ifinance-crms-prod.zhonganonline.com&lt;br&gt;&lt;/span&gt;&lt;span style=&quot;color: rgba(0, 0, 0, 0.88); font-family: -apple-system, BlinkMacSystemFont, &amp;quot;Segoe UI&amp;quot;, Roboto, &amp;quot;Helvetica Neue&amp;quot;, Arial, &amp;quot;Noto Sans&amp;quot;, sans-serif, &amp;quot;Apple Color Emoji&amp;quot;, &amp;quot;Segoe UI Emoji&amp;quot;, &amp;quot;Segoe UI Symbol&amp;quot;, &amp;quot;Noto Color Emoji&amp;quot;; font-size: 13px; text-align: left; text-wrap-mode: nowrap; background-color: rgb(250, 250, 250);&quot;&gt;za-crms-nginx&lt;/span&gt;&lt;span style=&quot;color: rgba(0, 0, 0, 0.88); font-family: -apple-system, BlinkMacSystemFont, &amp;quot;Segoe UI&amp;quot;, Roboto, &amp;quot;Helvetica Neue&amp;quot;, Arial, &amp;quot;Noto Sans&amp;quot;, sans-serif, &amp;quot;Apple Color Emoji&amp;quot;, &amp;quot;Segoe UI Emoji&amp;quot;, &amp;quot;Segoe UI Symbol&amp;quot;, &amp;quot;Noto Color Emoji&amp;quot;; text-align: start; text-wrap-mode: nowrap; background-color: rgb(250, 250, 250);&quot;&gt;&lt;/span&gt;" style="rounded=0;whiteSpace=wrap;html=1;" vertex="1" parent="1">
          <mxGeometry x="410" y="220" width="280" height="100" as="geometry" />
        </mxCell>
        <mxCell id="BIjyKwn6PLJgD-Ix_rdq-6" value="" style="endArrow=classic;html=1;rounded=0;" edge="1" parent="1" target="BIjyKwn6PLJgD-Ix_rdq-5">
          <mxGeometry width="50" height="50" relative="1" as="geometry">
            <mxPoint x="340" y="120" as="sourcePoint" />
            <mxPoint x="344.12" y="180" as="targetPoint" />
          </mxGeometry>
        </mxCell>
        <mxCell id="BIjyKwn6PLJgD-Ix_rdq-8" value="" style="endArrow=classic;html=1;rounded=0;entryX=0.433;entryY=0.05;entryDx=0;entryDy=0;entryPerimeter=0;exitX=0;exitY=1;exitDx=0;exitDy=0;exitPerimeter=0;" edge="1" parent="1" source="BIjyKwn6PLJgD-Ix_rdq-2" target="BIjyKwn6PLJgD-Ix_rdq-4">
          <mxGeometry width="50" height="50" relative="1" as="geometry">
            <mxPoint x="325" y="120" as="sourcePoint" />
            <mxPoint x="325" y="180" as="targetPoint" />
          </mxGeometry>
        </mxCell>
        <mxCell id="BIjyKwn6PLJgD-Ix_rdq-19" value="" style="edgeStyle=orthogonalEdgeStyle;rounded=0;orthogonalLoop=1;jettySize=auto;html=1;" edge="1" parent="1" source="BIjyKwn6PLJgD-Ix_rdq-9" target="BIjyKwn6PLJgD-Ix_rdq-13">
          <mxGeometry relative="1" as="geometry" />
        </mxCell>
        <mxCell id="BIjyKwn6PLJgD-Ix_rdq-9" value="&lt;div style=&quot;text-align: left;&quot;&gt;&lt;font face=&quot;-apple-system, BlinkMacSystemFont, Segoe UI, Roboto, Helvetica Neue, Arial, Noto Sans, sans-serif, Apple Color Emoji, Segoe UI Emoji, Segoe UI Symbol, Noto Color Emoji&quot; color=&quot;rgba(0, 0, 0, 0.88)&quot;&gt;&lt;span style=&quot;text-wrap-mode: nowrap; background-color: rgb(250, 250, 250);&quot;&gt;web-gateway&lt;/span&gt;&lt;/font&gt;&lt;/div&gt;" style="rounded=0;whiteSpace=wrap;html=1;" vertex="1" parent="1">
          <mxGeometry x="30" y="360" width="260" height="100" as="geometry" />
        </mxCell>
        <mxCell id="BIjyKwn6PLJgD-Ix_rdq-21" style="edgeStyle=orthogonalEdgeStyle;rounded=0;orthogonalLoop=1;jettySize=auto;html=1;" edge="1" parent="1" source="BIjyKwn6PLJgD-Ix_rdq-11">
          <mxGeometry relative="1" as="geometry">
            <mxPoint x="550" y="530" as="targetPoint" />
          </mxGeometry>
        </mxCell>
        <mxCell id="BIjyKwn6PLJgD-Ix_rdq-11" value="&lt;div style=&quot;text-align: start;&quot;&gt;&lt;font face=&quot;-apple-system, BlinkMacSystemFont, Segoe UI, Roboto, Helvetica Neue, Arial, Noto Sans, sans-serif, Apple Color Emoji, Segoe UI Emoji, Segoe UI Symbol, Noto Color Emoji&quot; color=&quot;rgba(0, 0, 0, 0.88)&quot;&gt;&lt;span style=&quot;text-wrap-mode: nowrap; background-color: rgb(250, 250, 250);&quot;&gt;Account&lt;/span&gt;&lt;/font&gt;&lt;/div&gt;" style="rounded=0;whiteSpace=wrap;html=1;" vertex="1" parent="1">
          <mxGeometry x="410" y="360" width="280" height="100" as="geometry" />
        </mxCell>
        <mxCell id="BIjyKwn6PLJgD-Ix_rdq-20" style="edgeStyle=orthogonalEdgeStyle;rounded=0;orthogonalLoop=1;jettySize=auto;html=1;" edge="1" parent="1" source="BIjyKwn6PLJgD-Ix_rdq-13">
          <mxGeometry relative="1" as="geometry">
            <mxPoint x="410" y="636.8800000000001" as="targetPoint" />
          </mxGeometry>
        </mxCell>
        <mxCell id="BIjyKwn6PLJgD-Ix_rdq-13" value="" style="shape=image;verticalLabelPosition=bottom;labelBackgroundColor=default;verticalAlign=top;aspect=fixed;imageAspect=0;image=data:image/png,iVBORw0KGgoAAAANSUhEUgAAAKUAAAE8CAIAAAAuV+ayAAAgAElEQVR4Aey9d5hdxZXo63/m73ffvTM2UaHV+cSdc44ndpK6JbVyQgIERkJECYZgDBgPspFkG8Ngjxjb2NcJG/vCxcNgopBNNDYGjGEwQQjlVufT/V7VOqe0dboVaBipJau++rrr7LNP2r+9Vq1aa1XV50bPlL+nK/C59z/48Ez9+7kCn/t7uLl///vf/8M//MMHH3zw9/Bjj/4b/y54j46O9vb2Hv1C/J08e3ryHqmU46E4MjJCToPXkYfH06h8FPp/POef3HNOQ94jIyOlSole3HFZwskEValUqjqN4Bz3reDlw8PDY18YPX/ytE833oQWNEqlEoFBLjq5IUZHR8lpBBgBTG4C8kLSIOfAETiTvC28FTl5UjVOT96ER0XOkdQSuoQxHIFz4CC5OeBhFBV5z+NvRF8+SdqnG2+CMEoFrjUcIXIMjVKpNITLMC4DAwNDQ0OlUoncHOS1cFtU3RBV91MUKnxc9MhkaJ+evAkkoAj8AOHw8PDIyMjw8PDg4ODQ0NDAwMDBgwf37du3f//+np6egwcP9vf3Dw0NEWUebYxVEpMB4Sf6Dqcb76hURTvUqFgPDQ319/fv37//gw8+eOWVVx599NEf/ehHDzzwwE9/+tPf/OY3zz///F//+tfdu3f39PT09fcPDAwMVgrcK3C7kDb5lKhGIX3EJ4JxAk4+zXkTiQRBB4HetWvXO++884c//OE3v/nNvffeu379+hUrVixevGTlypUbNmzYsmXLT37yk8cf/+3vfv/7V//4x7feeuu9997buXPn3r17e3t7BwcHiW4gPQLR6lVHiG44ASCP8yNON97ws0HmgDHptgcGBg4cOLBjx44nn3zyO9/97vXX//OqVau6u+d1dMwsFltyuLS0tMyePWfhwoXz5y9YuXLV1Vdf8/Wvf/0nP/nJM8888+abb3744Yd79+5Fct/Xh3t61JtXQY0qmONkcCJPO914k8sNWndgYKC/v//AgQMfffTRCy+88OCDD27atOm666+/6KKL586d19ralsnkfD8I/BDXwPP8MMxks7kwzBTyhVmzOpctW75u3RU33XTzV7/6L1s2f2Prv239xS9++dRTT//ptT/v2PHRnt17DxwA/CD5JTQUHy6NlEZGR0ZHR0ZHjlVPJOzR0dHTkDdo18HBwZ6eng8//PDNN9/83e9+9/DDD2/ZsmXNmjVtbW2FQjGbzYdhLgyzvhe4jue5QeBnwiDjuoHnBb4X+l7ouYHvBdlsrlBoKRZbi8XW9raZCxcsWrt23Ve+csfW+//9//7fR3/7+BPbtj330ksvv/HGX95774M9e/YdPNjX3z84ODA0hBQ/VvClo1E/w/tTXQEYX/X19e3Zs+cvf/nL448/fvfdd1955ZVz585taUFKO58v5HKFTCYfBtlsJpfN5DJhNgiyYYiq72d8PxME5QY89P3Q8wLX9T0vyGRyxWLrrFld3XPnLV60ZMniZRddtPqaa9Zv3vyNX/7iVy+/9IcPP/ho7579B/b37N93oPdg/+DAcGl4ZASQjwf+U/3aT/7iSSTfUfuWqGX4RUfqI+E0cKINDQ319fXt3bv3rbfeeuyxx7Zu3XrHHXdce+21q1at6urqCsPQ8zzfD3K5XDaby2RyYYj+It6VNm6UwR+OPPS80HV9QO77YRhms9l8PlfI54utLe1dXXOWL7vg8suvuOmmL33ta3fde+99P/j+Dx/8+S+efurZ1//85kc7du7bu//gwV4Q/aGhYey0jQo9+h1g641LsOpqjHvOcR6cjLyrBjPkWpCfDQ04Pjg42Nvbu2fPnnffffeVV1554oknHnjggRtuuGHp0qVYdRdyuVwYhq7rep4XBAhUJgMVkT5SPZx3BkTc85C2L4PH4u7hv3AH5HKFYrG1o2PW/PkLL1x18ZVXXPXVO+7c+m///tAvf/XYf/znM89se/6FF9/8y1s7duzEXX4/cu0MDg8NgVmJ/kb9POTHEs9P1U1/nICrTptEvMk3i/4wgAo+L5BjciFKpRJ00jt37nz55ZcffPDBW2+9dfXq1Z2dnZ7n6bi4ruvjEgRBFpcK7OyRSMPxo/Au63bX9zF+uAngoON4juN5XpjJ5IvF1paWttbW9o6OWXPmzLvggguvv/6GrVv//be/ffKNN/7ywfs7du/ae2B/z8Ge3t7e3r6+PuLkgZ9c6fwPcwOTSzThxiTiDZjBribIydCWSMHg4GB/f39vb+/u3bv/8Ic/PPTQQ1u2bLnhhhsuueQS6KSDILBtG0hnMpkq3kEQBkEGeuuj/A0C1KlX+m/UqUdFnEg5aHhk4vnIxENW3qGbIEQH/TAMMtlsvrWlvbt7/sqVF65de8W11153yy233nXX5q3/dv+vf/1/nnvuuTfeeOPjjz/u6+uL+nfJb4dbnFyTCcOeXPY5+VVVtzaxtwcGBnp7e3fu3Pnmm29u37794Ycfvvvuu6+++uru7u5isRgEgeM4dqX4vp/JZLLZrO/7SOLCMJfLZTJZNPrCyIHoMf8eCznS8LiWeRPbHql9x3cdDzc8z/XJfeZ5YT5fnD17zsqVq6677vq77rrre9/73iOPPPLnP/8ZRvbg6z3NeUNHFXVRwY0Mehs8oB9++OGLL774wAMPXHfddfPnzy8UCp7nWZZlmqZlWR4uruvatu04DvTZ2Ewrs89kskGQqVQkwcesh/OOSnlYeapsvbuuj5Q5GsWFgZ/JBFkfW3mO49m2a1uuY6MbD0w/x/F8P8znCy0tLe3t7bNnz16+fPn999+/e/duGMiTLgwuCAjDp5FseO0k0uejo6PQQ4PqhvbAwEBPT8/HH3/80ksv/eznP9+4ceONN94IqrtYLIIhBtrb8zzQ4UEQVKyzIINLGIZBuSDT+hPxHqPVEXJckZIHfkimcbsi0z4a0GPeyEaEO8zPBF4mE+aQYZ8v5rKFXDafy+Wz2VwulysWi52dnd/+9rf37NkDpKP+eaL5TkPeQ0ND0EP39PTs2rXrtddee/LJJ3/6059u+cY3rsKqu7Ozs6WlJZPJBEEAfTM2vAMYcQHWaJ+dyWTCMAStjq59JhuGIOLHFm4i/RVRho780F+kyZGLJgx8/G6IOjri4w4EkfZDNOrL5hHgTCGfKxYKLa0tbS3F1kKhBXsCsiEuLS0tW7Zs2bNnz8DAwFhNfhrK98jICMQz+vr6du3a9fbbb7/wwgv33Xff2rVrW3DJ5/Oo78UFkwPpRX+zuABmH3fRFYE+dE/g4yH4SrHMfQLe40k5cssQwy30syC7yLwPUc1lCzCyz+FhOnLSFZCTDtntuOJ2Sy6Xhzu1WCxu2bJl165dvb29JGhLTJnTjffw8HBfX9++ffv+9re/vfDCC9/73vduu+22K6+8csWKFZ2dnQA2i3UfCKvv+3gkXZbyMAwzmYyLi4+Hw+S2gEZFH8Bt8Inle1xBL98E2CYHrxw5DcS97NJBertQyBdbim3Filhns3lw7/g+6n0cx2lpafnGN76xe/fu/v7+qBEDpE8H3iTvoL+/H3roRx555Hvf+97Xv/71Sy+9dPbs2cViMZ/PR8dUAB40OSEKFlnFg4bsb9DhcBqohApv9Own7b8PURwzSCs7YlEPjcwCQh2N9JC/FpEGT1wBWWZthUILdt1n0ejODVzHt23HspB1mc8XtmzZsnfv3sHBQUy3nFsX4f3pu++TES8hP2BgYGD//v07dux49913t2/f/v9rs9WrV8+cObOlpYXYXCC4QA7Mb+wQLY+yAC30zZ7nAWbwdsJLiAVH2GPwE5fvMns/A0NtcKzibhhFX4IAuXGy2TyqmVw+VygUWvJ51GcXcc3lCgGKyvi27VqWY5m2aaCxheO4mUxm06ZN+/btGxoarkTVkJMVh1zLztdPD/zY9jm4e4gzhHwk0TCkQZ6CBuFa9Q7gAT1w4MBbb731+OOPf+tb37r55pvXrFmzePHijo6OqJYmfXC0USW78BT02cQOJ42qvhyfjPwtE+i/D+/CkYmOx9PYCY8BZzJIRSPTLFdArnXcbSNTHMIzYTbwQyzQrmU6pmEbhmUYpmFYeCxpZzK5TZu27Nu3H3feCHBlgIquPalVF/mTPjwGb0AF3QmMl6K5YOQmgMZYzIB8eHiYWN379u3761//+uyzzz744IN33333DTfcsGzZss7OzmKxCI7uKNpx20SNj/vs8R0E5J/MXhvDG+lwcL4C41wORd4ANjRwJ53HYTcUbrGxQGPMlq6bUIG3aSLemzeXeWPSwHu0dHhU7ZMCrjr/2LzBVoR7bQh796PySt6OSHOVSTk8PAyJJTt37nz77bfRMPpnP7v11lsXL17c0tICqng8KTw+cBM869Pzhg77kPbO54vlmkNjawi7BQEaoLtugFwulmMallHBfDhv2zTtbDa/efM3QL5PJm8i3DBegofgAyLg4ako6RLO8+3v7wdvySuvvPKzn/3sjjvuWLdu3bJly7q6usDTSQbKEwQ3wZcdkTcZZ0M/TR5GG/BUGJZhl4dbedRP53PIi5IJcwEeiGPMWHubSHsTxrqO1DhU00SwJwtvEGuirgF2FDw5ArCxfYEEGjD/8Y9/+o//+I+tW7du3LjxiiuumD9/fmtrayaT8TwPXJ5ggk0S+a6CGn1I2tggR8NrZHtny9o7nyvmsVhnMjlkpaOcGWyRYcwE7VjeBPYk4l2FHB5GhR40OZAGL/f777//2muvPf3001u3br322vWdnZ2tra3ZbBbokqgGeD2J73OCsjqRl40v3wQqGVbBkahxF2KHaK6S7FDIt2DSyBo/1E/bLja8q7U3AY/77LJYE+STQp9D9wxESTsKG8QavCUHDhz48MMP//CHP/z4xz++7bbbVq1aNWfOHIhc+b4PXgUHFwhYgeeExC4nAm6Crxmfd3msdXgQhfhMyoY37qcLhRao+TxKhcNJj8T2tkk/HQU8LmPTOER9EvEGmSa8STwDOum+vr6PPvropZde+j8PP/zd7373jjvuuPzyyxcsWJDL5QAzuL1ItAqkHEjBCeAwmSC7ibxsHN44Fo6SnKIVj6+w0sZj6PIwGvvIKgOtHHhVHcezwCKrdMzR7rkKfPThZJTvqEoHGw0M9YGBgb17977xxhuPPfbY3d/+9pVXXTV/wYJisQi2GGAmPTRxbkODHAdPyIntwsflfVhuE/hMxrq+i1iyQaxxV40HWrZrRiwygpOwJEeqGrpuknMmhXxHLXAy2gaxHhoa2rNnz/PPP79x48Zly5aBq8R1XcuyIPZM/NgZHM8AfyfprYE3UewTkdKJvsb3UTpKVHtHlTaQhsEVEuhKhKOIPWVlV1qQ9dzAQVFt5CMjtremGcT2hjsgCjhqr0E7quQnBe+xkg12Gcyp+ctf/rJp06alS5f6vg9JB4aB3INVtndUsoE3SDOJUU4U3ARfB7zBKAM1fsgJir1jEN4gsIuFVmyXoXiX74PnpCzQhm6OO6SOYiZtwpscIcJ9mH0+NAwTFeDvCfW3EHcKgAdPGdho/f39L7zwwsqVK4MgkGVZURRVVTVN03XdMAzLsmzbtnCBFCNwZRM1Di7Pk+JvOZx3xd1dIQ0OskK+WKi4UHLYGR6GKPpp266JR9KaZkAdS5HgHNsg0h+VbNO0Lcsh/jXiPz85vMngG3R7CZfR0dGBgYHt27cvXLjQtm0eF0EQRFGUcVEURasUXdeJkie8o0IP7bHSejznVL3qSG9FrAR8AkpHgZF0tdWdbwHMZcblwbRnWyi8Ee2ko+TGcq06EpXjcdu27RL/+eAgipdgATvkNj9B/nMQa2KZA2xwoQPv+fPnW5bF4cLzPCAXRVGSJAJeVVUdWyZA/UjIgVyUMWF5nD5zEiYZ+1aRtw18H+Wngg4nFlkBSCMHGfKGhjg1xXN96KQr4Y3xfWRVdMc+HJdx9GCF9+Z9+/ZNdt6maXIcx7Isx3FRQQfqAB60/VhBh5EYGY9FqKAmYIOQKAmLkZugqgGnEeRVbwUP8UtQvDSDI9MkUlkoYLHOYdI4kOWh7FIs1ihkWe05+UTCXaW6o5hJ+xTjzbIswzAsLmOpi7hIkgRKHnJJwYYn5hux4Ko4kWyFKt7R06LnkNOiJxDY+J7AU4EgJl3JKyqUo5ZlcwwG0yRqSXpo0hgrwUc/QrgeqXEq8TYMg2EYmqbHRS5UClHyoN7BpiNZw2PxjD0CAj3ucaIDMriA/id/4SAeFuIZg/kiyj7AAy2Q7ByaLorMMQenIRwaSumHKXDC++9avg3DoCvlKMiJlBNjHjp1kk0M/Tro9iqopMs/3Owqn1Ul30A3Wyk5XPKHCso5gYrzgvN4fmjGwzkn46ruKOZo++gyHX32SGJNjp9K8q3rOk3TFEUB9HGRA2yCXMLWXNSOA+rEJTeWd1Tzk1EcnDaWdxZnNoIsF3ApFovQKBTQpM6INxRnF1XcJmNHWVHAVe0o0aO3CdcjNU4x3hRFpdPpoyAH0x2sd4Adtd41TQNHDYzaiZInEj9ug8AGPU9U+ljYQBoEHecjQ25hCOb3uLGsKrRjHx4dcNWzR8JMjp96vFOp1JGQw2gN7DiCXIoU0PDEVwMGHTjpiFkHok8UADHpAXYU+RgFns+hOd8orR/PHEMOMpjjc4j0GOfJWMDRI1U4j/mQcD1S4xTjnU6nk8nkkZCX7XY8YBNwAcUe/QtCD8M28NNA707Yo5RdXDByJPBkwBZFnslkQI1Df01IVwKyru2g/F8gBAir3GTIFjuymfZJLTX4oCNhJsdPJd6apqVSqUQiMS5yBheWZTmW5VmWR2P08jC9SskjgRdxlSRZQvoe4S9LfdlfY9uO7XhOZZZ9EGaCMOsHGVxDNAMTr7eSKxSy+Vwmlw2yoR/4rufZjmPalmGh9F9NNzQdBTbG1jJ7rfopCITA+ceU5rEnEK5HatiWmwlzmzZt3rd3MvlbIPEB/vb39z/33HPz5s1TVTWZTCZwAeRRQWfwOA1gcwzDsQzHsVXIYagmCqLAC6hyZSUgiKIgSYIsC4osqoqs6aph66Zr2r7tBp6f9cNckMn7Yd4Pc16YdQOU5B/m82EuF2QzXiZwAs/yHMOxNdtUTUMxdcXQVcxbG5e3bo57/NCdcXh4eyzaIx05Emk4Dv5zlI+8t5x/ftL8qaOVMoK9ugR5X1/ftm3bgHcikYhXSrWgUxRD0zzD8AzD0TRL0zzLCDwnIqY8FMRblEReFDiBZ3mO4XlO4HjEnRF4WuDSAkeLAiPJnGwIqq3onmGHjpf1wnyQLQbZop8puGHOCTJumHEzqNpBYPme4Tq6bamWIVu6ZGqoGppqGppp6ob1KeuR0E7geDkfGfFG+ecAe1zkFRoT/H+MfOToux6Td6xS4vE4UE/jQlEphkqxNMWzDM+xAs8JPI8qh0WZF0QsyAIn8pXKId3P0SybZpkUz6RFlpYERlIYWecVS9Jd3Q4sL+uGeS9b8LIFN5Nzgqzth7Yf2L5veZ7pulisLc0yFdOQTF0ydRnXSct706Yteycbb3zTISEfq8/j8XiFeAykHVNPJJOJVDpF0RTDIp8rmOs8ywusIHCiyIlAmmUElhVYTmA5keF4CmBzdIqn0wJDiTwliZSksKouGJZqu6YX2GHGyWTdTNYJMo4f2p5vua5pO4ZtGxbqrTXT0AxDNQykxg1DNVH9TIRbn6hiH1f6Qb4nKW8QeuA9f/58TdPAPgetTpAfasTj8XQqQVNJhkrTFIUdrxzDCwzS0QIj8YzEMgJN8zTDU6xA8UKa41Mcm+ToNE8qkxK4pCjQqsIbumxbuueagW+HgRMEju/bnodgW5ZhGCgCj4uOigEVT94xDeMz0OTQEYxLbmIHTwHeEA9dsGAB+FPTuIChDsIdi8WacWmKxWLpVIxKNadTsVQqiRwzHEPxLCVytMwxCsepHK9SnJLmpBQvJnk+wXEJjk3yDCUwtMBQPJVi00mOSoosJQusroi2rrm26btW4Nm+Z3uu5drIAjcNhBjb08gE1wxTN03dQtWwoX7Kbpu8fGJox33VKcN74cKFpmlCvITCJZ1Op1KpZDIJ6r05FmuKxZqTieZUsjmViqXSiRSVTDGpFJdOCxQt06zGCAYtmSnJSEhaXJRjgtDMc80cE+dQ503xNM1RFItekeRpSuJYTZQsVXNN07dt37F9x8IZ3yaWbV3XDB1GVBXYhmOh6lqGaxquYdiE2adpjEtuYgdPSd4w1AYvOkVRZeqJRCyRaI4nYolkPJmOp6hYgmqKU81xJp4SkoyS4o2UaCVkK6ZYzYrZJGuNgtTAC40c18wycY5OcYg3zVJpDok4JTKcykumrDu65Zm2b9k4Fdi0ddPUDNRfa8hjgi68aaFu3LZM1zI9qKbpneEdNcOP2EZGWqVE85mIfBPXCoTDIYiCXetUKpFOJ9LpJBWPp+qbEjUN8Zpmqp4Sm3i9WbLrRXOGYNSKZq1o1Il6nag1iGqTIDVzPELO0kmWTnOopjiKFlheEWRD1m3dck28+JFpOYZp6dggQ9aYaZZn2ZqWjZ6zXMPySNXPyPcRIVeeqIA+9L+/v3/79u0LFiwgvCEETuJjLBQGjauEJCMmGD5BJ5qTtU3xKY2J85P0dF6t090mJ9fo5RudfIOZrdeCetltEK0m0WwW9ZigNrNiE8s1cWycRz16imUYnhNkUUGuFwN521zHcS3bNi3EWzNMDY+rUVKJYVu6beu2o9mOarvlarmqacNJn0aZn+b2OUlEL+FCxmNVvKPIK+MuTmI4Lc1pSVaO06lYqj6WmpqgzqOFqYpZ62XjLZ1s1wJ+9mK6ZW4ymNlsFhrloElym0W7WbQaebWek2o5sYEXmzkxyQoML4qSouqGCetg4MVPbNvCnTcyz9BAyTZ129JsS3Ns1bEVx5FJtR3FtDSkDT5tnVhXPe6rJl3/HU1OhfljMB4by7sKucBxEsvrNKelWSnJsGk2yfBNnDxD1GboblPYKs1dklu9rm3thmDFWnXOBXShu8lqrVezdZJfL7m1gjWD12t4rZbXGjk1wSo0r/Kyoei2YXmW49uubzmeZTtotA1OcQv13pptao6lOpbi2rJri44tOg6qtn2Gd0Vrj/kP6ht8LCDZ5C/xp0I+E3Te5C/xqwg8Lwq8xPMShzwpLMtTnJjklGZObxTtZiPL5Gbrcy/wlq3xL7jCXr5WXXgJ17UiXphb57ZN17PTlGC65NYIdg1n1HNGjDPTosUprmSGupM1nIzhhIbtG45nOI5uIW8a8rGYhmaZqo2q4lhSudqSY0u2rU5i+Sbz/QEFSUMmjTGIPtmBY/hTQawrnz1CJpeUSqXe3t5nn3127ty5mqbBSCwq2cAbuccRcOwnlXhW4hlBoHmJYpUUqydYKy54cS2f9maxLYvk7ou0JZdpyy9Xl61l5q2KtS+qDTtrnNbper5GydQIXi3vNApuXPIpLcPbecUrqm5ecbKak9HdUHd91E9bFjjRkB8NSzlCbpuybeFqK7atTVbe0fU8Ktf8xK7nAZJd+ezxecuynMAlnU4DcjDUoP/mkMecoyWWVjhaFWhJogWJ5hSGMyjWTnFunPebpVyj1jLDaGsI5yTal3DzL5aXXCYtuYydd1G8bVF9ZnaN3TbDbJmh5mqkoF7JxPUcbRfFsF0KWiW3oHoFzcupTiBbtmKaqolEHE/0McDRgoQeVUuzLKQDzvAGokf/C7odRDwq36Iogh8tHo8nk0nIcjlkpXOINyVxlMLTmkjJYlqU0oJMiyYl2CneibNOM+c38pk6MV+ntNaZMxv82bH8gmT70nTXilTXikTn0saOhfXF7tpMZ63bVu+0NjmtCa+VzrSzQSvnFQQvLzoZ0fYly1EsW0WxLxO5U/FaV+ZhBS2G9OktNXiHcS2viR0Ee21SyHf0JohabUSfi6LYiEtTE/KckshYWb1zLCNwaZGjFIHWpLQsJkUxIcqUbFCSnRLsOGvHWTfO+s1spoHN1LKZ6Xx2ulqc4cysz3Y3ti1s6lzSOGdp4+wlsa4l6c4l9MzFdNsCqjgnlZuZDtsYv8h6ec4JeduXbFexkLrWDRNWSLEN0zZMp1IhivJZudAnhnbcV0123iMjI2CvdXd3S5LU1NQEyBsbG4E6yDrKYGQYmmNTApeSBUqVkrIQF8W4KKUVg5KttGgnWYviXJrz04wfp/1G2qtjvBo+nCJmzpKy/6hmP++2Tmmd0zx/uXTBZcGl1xYu25C96Apz0YVUy+x0tp3JtDJ+gXMzguMrjqdZjo5GZkjGbd1wdNMtV8vVLUe3bDQwR863Ty/l45Kb2MFJxBvC3iDlxNsyOjoK47Hu7m5FUeI4EgpanfwtR8FTqSSVjjM0cphIQkIUk5KUllVaNWjZpAQjzRoMb7O8S7NOkrZjlN1I2/WcWyP650v+WbL/T3rwT27u/Fx7cvZiZ+Wa1rUbWi692l1yUSxsTfgFNtPC+nneDUXHk7G9hubQY57A29FNB5G2odooanKGd1RrR9pkPHYk3vPmzYP8NfCWk5AoUEch0Xgc+c9T6Waaaea4uCCkRJmWNUbRaUmneI3iNIY3WN6kWCPFmgnWjLFmI2fW8tY0wT5Pss+Wnc+rzhc0b0bQwncu9JdfEi6/xJy7rMHKxJ0Mn2nhvCzv+KLtyOXOG/XeFeSmbVg2iofbtuHYKGqCp+efke8I5UPN6HgMbHVyB5D5oWQ+EYzKIBYej8ebm5ubcGlsijXGUo1Jqoli46yQFmRG0hhRpQWF5mUK1zQnJ1k5LWiUZKRFs4lTZ7DKNFatEYzpkjVVss7mtHN4Y5rspsI2rtDJZtvrZDtlBUq2hbN9zrQFw1SR7W1C8BsjR/GSSuKYY5quabqG6Uxa//nJt9cIXXILkCNR3hAgIfExCImWZT0ej8UTsTgVi9PNcTqWZBJpLkGhSnEiK6msqqVlKSEKCUmKiWIzCoaKzYLULMhNgtrIK5o4VREAACAASURBVA2c0sCq9axax+l1vBnXA9rJ8V6BNgM5KNj5VsXxZdNSUJgbxb9xugOCjgLfpqVbtmY5muWqlaqZkzQeevJ5R8ffUZVO4mPz5883TbMcGsGzREksPFUu6VSKSqfYZIKJNVPNTenGplR9U7IulopzIm1YnB+kbLvJ0BsMvU5RaiWxThSaRDEmyglRjnNSjJFitBxn1BirNXN6QrIZ3RPtUHZCI8g5mYLh+qh3tkw05kbjMLTChI7zljTLUm1LsW3FdmRcFduZtP61ScGbSPbReRNPamXqIPqPRuEMyzEcz/BMik02p5sbErW1zVNmNJ3bEKvl5WSQZWfOTrZ3NuTbpvnZKY4/1bCmq1qdJDcJUpwX46yUYOQ4LcdpNcFoSV6nJIPXbMXydcfXHc+wPcv1bdczbVvRNLSyAAqAI6+LilyqllL2rFmyYykOwo8GbJ/FKHxipvi4r5pE9jksi0ysdNDnEB/bvn373LlzDcOA+f5EyqMNrpKAKNAsn2boNBNL0jMS9DkpbormNbR1cxdeaV1zq7nhK8kLr6qZu+Lc3MyzNHeKpNfyahOnNjFyA63UUVoDYyDh5hRaVETN0GzHdD3TQdmJluPaKGTiaoalGZZq2kq5WoplKpah2oZm65qt67amWxpavRTbc+Ne+pNycBLxBpMNeEObrNezbdu2zs5OTdPKrtMx/5D/nONFjhcZFBWVWV7kBIoTG1lpCq+dZ2Wnty9MXbzBuPEu9yv3Kjdsotd+KbZkbW3rghqnbboc1HDWDNacwVrTOaeGs+t5Iy5qaVHhVF02bcPxTMezHBdXz7Rd3bBVw1ZNR0EVU7dMFYXLdMPWTBQoQf5W3MGDP6a8aO1JYRz90MnFm9hosPIabLjQ39//zDPPtLW1ybJ8yHtaSTcmswPRBEFeEDle4niFF2VR5kQ1KeozZGuKlZ1SmFO/6NL0mpvkG+5yb7/P+/K91oa75ItujHeurvG6z5UKU6TcVCk7Rc6dJ7jTRatZseKSnlYMTrcV2zNc33IDy/VNxzMsR9MtxNtwVNNREV7sa8MpqSbynSuonuFd1UNXPYzKN5hvsF5Pf3//008/3dbWJooimRkK4KOw0ZpNgiSgJHNJ4BVR0DhRpyQ9Jup1ilVjBjXZ9rpZC5sXXUKvvl68/Hbtyq+bV21RL/sat+KW2OwranLLz7Nmf0Epni0F54ruVMlp0PyEGdJ2hrMzipczgpzhZXTHQz4Vw8L6usp3ZmJHOnK5QUUm3Rl9XoWZWGdktVTSc8NT/f39Tz31VKFQYFm27ErDwRKapg8FQ9GKTaIgSIKg8ILGCzpUhFxU46LSKGl1mjXDztRkOuo6ljTMvbR50bWJ5V9Or7yDWvGV1JIvNc25ekbrheeF3WdbbWfp+bPV7FQ9X28VEm6RcguCX1TDouplNMdHvM1Dy2+UMxYrswJME0VKIHQy2WDDgj5k/TWYT1S5/icwHgraewAX2NES/sIdcPDgwSeeeCIMw1QqBc7z5ubmRCIBkwUj1AVekHhJ4yWDEw2e1wVeFwRNEGRWENO8EBOEelGdLtvnG7lz7VlneQu/kLnovNZ1NV0bmhbclFh8Y2zhtbWzV59XXHx2OPcsr+scq2Oa3d7odST8djZsE8MW0Q1VxzdsF+Wj4iQ2lMdWSTs3dBvVyErE0Y5zkrQnRf+9b9++PXv27MZlFy57cNm9e/fHH3/84YcfPvLII0EQJJPJelwaGhpIvCSZTFIUhdU7h6w0SeMknRV0ntMEVpE4WeIkkRN5XqQFKSWqMcmol5w6LT/DnDXVnneuvehsd8W5uYunz1xXO++auiXX1i66qn7huobuy6YUlkwN59WGc2OZLiqcyfstvI14m46Lh2JohidW6wYOd6NMNkN3DN01UOY51PL870kCe7LI9z333LNx48Y7cdm4cePXcNmIy5133vnVr371iiuugGSHxsbGhoYGoF5fX9/Q0HBI1imaYjlGlFlRY3mNZ1XEm5EkRhQZQWAFjhMYXqJ4JcFrzaLTIGVq5Zbp6szzjbnn2AvPDpef3XLh2Z2XTule07j0avbCf6aXXp3q/mK8Y3ljODsZdPBBm+BmVScwLMfQDQxbQ7xVAw+0bRPBxrx1zzCgOkZ5e6Az9nmkG1+5cmVnZ+csXLq6umbPnt3V1dUZKYVCgeO4VCoVi8WampoaGhrqKqW+vr6xsRGFSxLJRJqiOIERFIbXOCTfqsgqIiOLjCjQPM9wHMOzrEBzUpJVY6zRyLoNUr5WbZuizfq8Put/Wl3/w+/+fHFJ/fw1yqU3e+tut1bfwM+/tM6fFffahEyH7BdVO9DxZH5L1y1Ns9Qob0Du6rqnl5Gf4R3BTJp//OMfX6qUF1544fnnn688Qv+3b9/+/e9/v6OjQ1EUMm0MYiRRWcfCHktQNMWJjKBxgikIFqq8IXCqwIoC8r6xPMMKPM9yIsUocdpoYp063psmhOdJmXPU7NlW/hyvbUbrAnrRmnDtlzNfvFlbdFmd3RZ3inK2Q8+0aHag65Zt2sgzDj4VlIqOXOrl/lt3dMOFahhneBPIkUZfX19vb+/Bgwd7enoO4HIQl56enoMHD+7evfuJJ56YN2+eruuwPhOESZLJJIh7fX19bW1tzYwZNbW1Dc2xWCqdpPg0o9CcwfAWi6rBcirDSTQr0GhWAkexQpqRU4weZ8wm1qxjrRm8OV00pynmVM2ZZudrc3P47ouV+ZeIs5Y3msWUXZDDVj0oGE5gGGi9DpTagicd4KlFeF4RIIfsBwMFxyabMp8s/Tegh/F3dM+SEVxgfsn8+fNJPDQ6cywejzc1NdXX18+YMaNmxowZ9XV1jU2NsURzgo1TcpI1UpyVEqykYCUEIyZozYLSxErNrBxn1SSrJxgjTmvNlNLMSE2s0MDzdaI0XTKmyEG9057KzGZzc1J2kXPyipfX3QyaRmY5yCbX0CSyCmzCO5rgMLk8a2AzTgr7PCLq5SahTuJj3d3dhmGAwzwaMoH5gmSiaF1DXU1dXU1dQ21DvD7GNKalJtZoEJxayauR/elKME0JpkjedMGp46xmxozTejKtpJJCOs2laSbNUkmejQlKk2Q3KT5lF9TsTD3brvt5zQ4M2zPxgnm26SBrXLN0DfXjqKLxN2Q/YC8LGq7plSOTxVibXPIdpU6iJqVSCeLfEC+Jxr9JFJyIezqdbk7EmuKxxni8oTle25Soaaamp8QawakxCtPcWVP82ed6s8+yZp2ttZ4v5WawbhNjJSmNSotUmqMoJs0waZ5P8lKc12KCwWi+5uVNv2B5WdtB+6u7tmebePtVGG3rKDYCeQ2YLgTFYfYoDpme8a9FuR69Dfs4gz4n8k2EGxokRMawLM0wKZqCGk8mGppj0xrj58eZqaIzI+hs6LyoacEVDQuvntJ52bn5C851uqdKhXouiDFWmlLTaSlFCUlWTPFKileTrJLiNF6xdMu3nNB1w8ALM17Gt33EG80bg9GXg3IV8TxQzBu8MGhFDzxhGET8jHwfgXNUjYMLfWhoCHjPmzePrH9OGHORwnIcy3EUx9FoKS6GYVLJdKIhmZiaoqepXmPbYumy23K3f7/4tZ+LG/41tur2GbMun2rPq5FaG1g/TllxSo/RRiNrNQtOUrQZ0eREXVIMw3Qc2wvcMOtnMm7omQ5KZDEcS3cwcncsb7QcF6pn4mNHwEwOg4EGf0nI5Ei8CWsUDMULrXE8z4oiLfA0xzBsmmGpFMc0cOIMzavNd1Orrndvvq941y8ydz6oXb+VuehfYrPWNYbLG/SuJqHQwGbq2HAGF9YJYZPgpQSL5nVBNjTDsWzfI0u3mI5rOK7p2ngFB7yIg1sZd+G5Byjhpbxcz5l4CSE7fgNIw0xBEggH3nPnztV1nfTfIOKAHHij5fNEkcP+NJpjUbKLwDKiEJfkOtWZ7rXVzb6QuvhmdcPd3m0/tG76vnrVvwqr7qTn/XOi5bImZ0mtOnu61D5VLE6X8nVi2Cy4ScFiZVs2fdMJbTtwLLR0i295vuV7puugRTvQ0h0mqtFttnFCG1764Qzv8THDUQIYum1isg0MDGzbtm3WrFmKooxdDxtCogi5IPCiyMoyK0msJHEiWoWLFsSEKDVI2jTVOcvM/6PXdVbryoblN9GX3aVcfZ+9/gfmuu9KK+9Kdl1fm1091VpwntoxTW2ZoeTr5UyzHFB6RnTyuldA80NN37GDEC+yh1ZcwzP8cd4xrNmCLXYULyGGOpjrk2tUNonGYwRwVSAc4t/FYpHjOJhDBItpVsIkle1M0MJ6aJlEVhQ4WeJlhRVlipcSgtQsafWqPc0IzjHzX/A6zykun9Z1ecPCG5Mr7qRWfI1edie14NbE7A2NbZfV5pZN9+bVOF211sxavdio51NWQQratKDFcPOWHXoOWpbLRXOCUeYi/ouyzW0k4lBBveOpRZUg6Zl4yTiCTnhDz00e9vX1Pfnkk/l8nmEYNK8AzSxAyyqmUqkocqTbebxcIpr5L3KSzCDeclJQ4pLepJi1qj1Fcc9Rwy8Yred486ZkV9a0rq3tuLp+1oaGzusau9Y3dF1VN2tNbfvqGcULZmQW1XhzZtgzG6w22u+QwnbNb9Ht0LJ81/IgzcXT0dQhF4GHCQauaXim4RuoegZer2fykJ50/hYCGHgTJQ+8C4UCwzDgNm9ubibID894YTgepS2yPEtzPM1LtKClJSMhGs2iXser0zl1Kq9PFe2pcnaq2jZF7zpHm/d5fdH/NJZ9PrjonNa107rXNyy6oX7eNdPbV89oXVmTWTjd6WxyZyLkQatkBhpCa2dsNzRtXzc9zYwgdzHsQDdCVM2gYsedGY+NI97oUJV9Dkcgf62jo4PjOMKbSHkSF5z7kErTaYajGB4toEjxHCWIaQHLN6/EeKVZkJsFtUnUmkSjUXTqpaBWLkxX2s/Xus7W533eWvxP/orP51ef3X7ZtNnrmhdeLVxwHb94XWrmBc3h7KTXwXktopXVDM9CyckorcnTTE81Pc1yNdvVHFt3LSzfphGaZmiY/hneR+BcOXwk3tu2bevq6hJFEZZSBK0OyEHQEfRUMkEnU1wqJaRTApUS2ZTIpUQ+KQgJHtUkL6QENCM8JShJQY8LVpPgNcjZWqVlmtpxrtZ5ljH3C87CL4RLz2tZVTvnsvSSK6mFlyU6lzdmZif8DtZvFZ28agam7jq646q2p+CKlmNyXM1xNNfWXdvwbMO3DM8yXbJ53OTR6pPIXiPyDfTJKHxgYOC5556bO3euoiiwmmL88AJGXCKViFOJGJ+MiamYlI7LVEKikyKTEpg0WjuRQYNy5IrhGV6keSXNa3HOiItOTAoapdwMKTddKU7T2883Z53ldv1jMOfz2bnn5udMz3fVhTMTYQefaRfdgmJmDN23Nc9RXFd2PRn9dRUXkCPq5fmheD4wXvVh8sCedP5zwjjKHnh3d3fD+i0kGJo4vMQT8Vg6EeNSMT7dLKSb+VQzl4qx6QT2ulB4sXOGExhOoFEwVEoxSpLRUryVFt2UFMQEv1HwG8SgVs5O0YtnO21ne+1Tgo7asL3Jb6PCNjHTJiH5Dk3ds3XPVl1HqVTVQUuv6TA51IK5/xZaCmByDcZOMd4QHyPTxqrAxxOJWDIRSyfRerl0GlWKaqboOM0mWSGNJocqFKemWTXFKClGTTNamjXSrElxFs3bFGdTnJVmrQTvNMhBjZ6bbhXqnGLMa0nj/FQtLGp2Rjc8U3dsXC3NtjUHr76GktfQGrmR5FQ8ORyG4GfstUqHXfX/SPK9fft28J8jvyneQhSo0zQN1HE8NJVMJOOxZCyWisWoWIxujjPNCS5GSXFWT/BWQnASvJPgnDhnJzk7zTk076RZK00bDKXzjCEyusjoPGtQghOXg5iWTRk51soJVlZzc7afsywPLZKqo6U7kPjizNRDKzigKaIWVuHldZJ1tCjf5BLxU6b/7u7uNk2T8CaBcAiGwl+GYrg0RyeYeEO6riZRMyM5vY6ujcv1jNUkBc1aIaa3NOst9QrymDYIfpPgNXN2gjEpWucQbFWiZZnVBM5ieY+RAkHNKEZGMwLbDgM3LG84pKNV9tD69mgLEtRSLQNNHqssxKbaaJUmxP4M7yqBrnp4JPl+7rnngDc4zEl8LNrA8wUFQ1A1RuHiQqyerqtjpjfy05L6DCFscmbSbUvleZfI87+YaF9WH86ZbrZNU3IzpKBBcBOcTbM6Ryt8SpBoRWIMkXUk3tMk31QDW0M+84zjeabhoDmBsmlIhinrpqKZqmppiqXLlq7YBiy8p9kYNp4ZOqmMtVOv/47ODwX2xH8u8ILCS4Fi+pJlMDqfVOIJpTalT6HtaVqxsbBQXn5V/tqvttxwl/bFm1KL1sxoX3quN+t8s7VGyzXKQZy3UrRKp0SeUiTakGlbYx1L8FzZ81QnY7o52/FNzTEkyxBMkzcsQbNE1ZIUW5FtVbI1xdZVjByvBoDXyD7jT60S6KqHR5dvYq9Fg2OHeHO8zAoWJ9mcbLKKzOk0ZzZy1nmcfY6am5rtppeu89f/y8yv3te5cWvu5i3K2pub5l8yvbhwitsxTc/XykGT6KYEm+JMjrFExlFZ1xQ8R/E8zclYbs6xPVN1TNEyOcPidIvXLEG1RMWWZVtRLBWnNqEFmwwTrcwE67ecke8qxIc9PCZvktxShZzjOLxeLmewnMlxOieIvEwJyJU2RbTP1sKzvI5pM5c1L1vHrrlJW3+nc+Nm94a79KtuFy7ekFxwaV3LwqlO21Q9V6fnGuQgLvg07wu8r0qBqQW24fmOF3qOY6mWKZqYt2HxekXEVUvRTRXPLEJr39u6hStS62d4Hwa46sHRecP+wGXTDO/6TlQ6xEpEltE4WuMphaN5nksLYpOs1qjmubr3T1buf3rt/292zv9qW3Ju9yXJS2/U1t/p3rDJu/5r2uW3pJasm9q6+Jyg63y/c4rZOkPNx6RsWsrwSkYxspoV2J7v+Z5l66YlGUiZc4aFVLpuibopG6aC1vAxUCYbWogNeVhRHAWM9UmF/FSyz6Pr5Y5dPxWWTxW5pMQnRSHFiwwl8TFZrlP16Zp9nhGcZeb/l9X6P5yZ/48/9/MtS8+ZuercWRfFl18tXHKTsuZLyWVXNc67tK5r1fnZ7qn2zHqjNaYV0nqeNfOindX9rB2GhmvqtoIYG4JhCqYpov3GcOqSpWuOrru6gZzqmgVO9RPKGy0mcWx1chjvoeHRkVFUUeTiBM4PjUo5EXFojIyMkPzUY/DmWRQSQ27yBC8mOZGiJTYlofyWJlmvl+0Zij9NzpynFM7R2s82O79gzf5Ha875hWX1XZfEF10RW3xl85IrY0uvbJx3abzrQqpjRSo3L+51xO0C67comaKRyamurTsmWmcLybRsGjIaiOmqhZfwwPNK0CqLwBvtN3ii/KloF0q00zVZE+zQPrVjb4IwzG7atHkv7CdZGhkpjYyOjI6UTh5vmOY/Lu+x+S2RKeBoQiArplgpyUoJVkyzIs0ILM3zFC+leeQ6jXNuExfUC7kaoXC+UDxLaPmCOvNse+75uaU1sy6un39587JrUiuuEVetty/cYCxey89alsx2MrlZYr5dzRZl19Ndx/Js2LIGrYINi7XgnMXokppoPU39RPXfaF4L2nf2EO+KoJNNhvE2K+WbIAyzd921ec+evYODw6XhkdIw4l0qjQwPo4g0qVEhnED7GOufk3eE5BbiP6+S72PxZlmJZiSKltKsiKYO8miXULxwMiPzjMbSBkVZCcpupr0GLlMrFKaJrefJ7Weps75gzz07u3hqx6qGuV9UL7p+5nVfW3jz5s4rb/GWXCq0zxPys6Rsq+yFKlqoybHQthYGzDMoZ58jpxuKkUDF2xWV108dK2Gf+RHTtC3Tht2lya7T8ClocxXTti3Hthw0M8a0c7nCpk1bdu3aMzg4VMJijXgPn3K80d6wPCtxaA9BkWVFtDkwmgTMIu4iI0i0JNIKT6sMrVO0mWScZtZv4DI1fPZ8IXeOWDxbbT/XmV2TXcjNv6xl3a1LbvnGvA1fzV5whdA6j8/OlDNtml/QUaKDi66dYSFnKazcgWeWVJznwBqNvz/brWaOcpcc4q2ZsKM0knV0Q2K5R1vgWXDctt1sNr8Jy/fQ0DCR5tLwyNBQiTzEO/YSGZxI4zOWbzLZAEz0Sr6iwIoiVA5tCiygzX9ZTmR5keElVAWJkUQWrYhPU1qSMuKM1cQ69aw3nfGnsuEUITddbY3nFuqL1s68/Jb2L/6zu/ASNtvF+q1S0KL7RdPJmMiL7mAXOXKh40Wv8VQyvFQPLLyHFl+zLHQznBD/OSzlSfaSBtiENxxX0YpxpuN4oM/37t03jHiPlEojpdLo8KTlXV7tPDIeK+cj8wJankmQOEFBFW1lgpZ1QJu+s5DmhHeIZXmJl3hGpCkhmRaSlJxk9BRnJzgnxrqNjFfL+jVittZoo4sL2ZYF6Uxn3MqnzaxgZzUna9iBYbiabOhqea85NC8YrcWGFmWSLbyZhWMqyO+Khf+E8EYxm4p9DuyRMqh06tCv25ZrW65ju2GQvevrm/fsQft/Dw+XhgaHh7EyL5UOdd6TQr7J+Hsc4UayLAiChJyqvMbzGscrLHK4iSxOWmUEjhHQxsA0z1I8m+bYNMulGS7FoFg4xSg0q9KMTjFGgjGbOKdeDmNmMWEXU1aetnOik9PcnOlmLSe0LA8v3YFn/OPp/ophKSaGbZmyZci2riBDDq+rekJ4R401YH9Iq5s2dNuGYVmm47l+Bttre/fsGxgYHBoqDQ+hWT2Tsf/WdR3CoGN5Y9h4fSZeEXhNQLxVVpAZQaRFgRL5tMilUYYTkxToOE8lBToN7FmWolmaYlma5xiRZ2SalpOsHhPtmOwmFJfSPdHJaF7W8rKWE5gwRdRCE/k13VJ0SzEs2bBgHV0Fj88US1PRWgCYwgnhDV27ZeIV13XUhQNv6NdN00Yb2mqGZdpBkGlr7fjWt+7et3f/wMDg8DDS52jwPQnttWPxRivuCbwsIOQqj5ZlkqK8kyKbFJkE4p1OijQlYnFnaYqmqHSapSieZgSaZSmOZsU0TmylFZPTLcV2DNezXM8wLVXTFU0zTEvDTjVEulxNvOG3rqEgqYrdq2hEjCcRHtsNchRb7PifQsvrY66qivYtRuoFH1FVQ5JUVdUty8lk8ksWL/vev3//wP4esNfwMqaHaXKw2iZipEVe8xnYa8fkLYoiLLKIFuZCqy0ic40TeJbnGZ6jUQV9ztA8y6CcZYZi0SxgmqEYFleGohmaYpg0xzOixCuqrOu6bVpoLU3btE3N1FRDNSy0TC7yuYAr1TBVvbxiMtqdSldQdBRvHXwieYPXpbxjMe68Qc9bluO6fjaTn9e94Oqrr/3x//7Ja6+93t+PhBvQIq1eaRMTPcJuIs3/Lt5grGF9LogiYnyoVgw5nkODcFLQZnQsy7AMzdI0UudQ0xQLlaLRRsEMK3CiLGo62iXQdgzHMeyyFkc7iqqmIRsG8pujtAdDQ5u9Iy8XcqxqCq4aTng4Ljfn8QvxUc5EalxFmhy6cLRbtW76ftja2j5v3oIrr7h6012bf/GLX7799jsHD/aCJsfj7xEw3AjpySXf0RAZBEMBNtLmoggmOY+5Y9wcGpYhMS9b6Yg1tgIYtIo2jR7gbaApNpVmUmk2zfA0J6CV3FieEUVO1yQLJaqh7cTQXpIO2ohItzTV1BVDR7O8y7DRaugmcrdpjqbi+t/MOxJ8M03kO9NUXVV0VYEvgvW5ac+a1XXhhRffdOPNj//nb//2t/d6enqwmwXbaGgkhtwseEhW7sgJ9YkIdeQ1xyXfxHlO/GuwngfktxxTnxPwuEGkG80VRsLNgmAj3JFC04g8RTMUxVAUi4Sb4Rg0mZxnJYnXNdkyceapYzooocnEaysi4VF1XcNVxwVdZrS4JqzvgZb4gNH5USTyOJ8CtVw+GduB+NbCDlQy7sL73qmKrsiaphlBkGlv61iwYNGdd37toV/+6oUXXvzwwx29vb1o7IXKOB32px+DRXCPnkzeoMlJ8lMENlNJf0PdNqpIw9No7XwWueckSdQ0tH8Fckg6tuPYyJFqmnqFtAaogXfZPMMXHqeu4c77s9HnmoY8ZdjednTdVJG9gB6apl22xjVD1wzTsF3Hz+UKK1asvPHGm++9975nnn72b+++d7C3F1tnOBYWxfLf1j7RvCPSXe68j8ob7ZAQLZg3L0mSpmmmadi27eBi2zbwjoAuNzHuqj+fQT4yQFUUXVUNy3IcxzMMS1E0xB4NCy38lI4VjpHN5ObO6b7wwou/8c1vPfnk07t37e492DeMHaX/bWTHf+OTxvuQmVYBTrhWhLv8nxyHxbZ5nvA2TyJvML5kWVNVwzQdDXvI0U1o2qqqy7JqGJaLvSiFfHHt2nX33vuvTz31zOuvv7Hzo539ff2DA0PDw6Xxmfx3Hj2hvIlwj4VNVoggGexR6gT54fJ9knkbBnKYgHmAx9YINjLQsAUeBJnu7vmXr123cePXHvz5L15++ZU9e/b19fUPDw2XhtFAq1Q6cWqc3EIngfe4sE853ia62VzwiUJXDUdM04ax1oIFi2666Us//9mD7/3tvf379/f3D6DANs5iiCYyEBInpnGieR8JNuEdFetoG0R8ksl3JbKJExnAf1Isti5ffsGXvvTlX/7yVy+++NL777/f19c3MDCIYSMf6aEUJTTowl7TE4Maf8rJ4V3psg/7P64mJ8gnIW/kAMeq27KcIMi0tLQtWLDoxhtv/rd/u//xx59499339u8/AHu9wEgaoT4sJW0EL3R2AmmPntjxWNW0o8Nol90thG91Y3LyNg3LtpwwzM6ft+CLX1zzla989fHHn3j7nf860HNwaKiivTFjGEaDcJeGD42zTyjtk8g7aoIB+GrCYx5PkAEvXwAAIABJREFUIvu84gbPZnId7TOXLF76rW/e/dhjj7/xxl92797d19c/NFQaGsTebxy9BvnG+Uno+NBg2Y92yuhz2G/uk/rXovJdxfvoyhzQn2TeFUcpyLTn+migtebyjXd+7YcP/OiF51/84IMPkfk9jMQaVWSBEzkm+ab4+OG+0hMp4p+g/650P8jkKJVKsN4erIdNrC1AcmgyEfag4viYAIMxMtNsEvGupKCgITX2lxEXqaGjVGLyECUZWo7reK0tbYsWLr5i3ZUPPPCjl158efeuPb29/SSOiZX2Ieco4Cy7RSGxHCeeQoT7RMIePR59jk1KBBgbF2XYAwMDvb2927dvX7hwoeM4AspK44E6WOA8z4u4SLigkElljjicRjrv45HsceXbMJB/zcXlE/nXdBQ0Q0FoYAlucOQvM2xFQV7uSp4h8rnatotOw5nkNrbL2to6rr762h/84IE//em1HTt29PT0oCH1iTa0J3ifHEO+ATYINNmIDPap6uvre/HFFy+77LJisaiqKtAVBIFknkNkTBRFSZJIyASog3ATiseJvEqffxreKIsI7W9Tzg8/FCDBXnaSkmAaluN4tu06jhf44cIFi669Zv3dd9/zyCOP/vnPrx88eHBwEHXFE7z2J+Nlx8UbwmKlUgmQw/6hAwMDb7755je/+c1Vq1ZlMhkZF1EUx/KGW4HcEByHlkkm1hhR7OTIkRqfFW80WdREWWMaWio5Al43bez6Lk8Kwba374e5XKGra86qVRfd+S8bH3ro12++8Zddu3b39w9AB3cyqE38M4/BG94YpBzaw8PDQzgQPzw8fPDgwXfffffee+9dunSpaZqyLPM8zzAMKHNZloGxJEmyLIOUgzInyaxV4I9Empwf9bdMVL4RbJRgpKBgBjjFSFoZ6a0tPBPA94JCoWXp0uW33HLrr3/98B//+NrOjz4+2NM7NDh0KsI+3v6b9Nyg2KEvhyXQe3t7X3nllR/+8IcbNmyYP39+EASg2/FCuSjTQZZR6pGiKMAbrDbS38NKLxRFEaLjIic64DPhjaLlOA2h3E9XPN4Wng4CdwAKVLfPXLFi5a233v7DB3707LPPvftff9u7d/9A/yBkjn62YemJC+wnfOUx5DsKmLRB3IeGhqD36u3tfeeddx599NHNmzevW7du/vz5mUxG13VZlhVFcRwnm82apglWerQjZxgGNjYisKP9OgFPYH9G+txEc3ww44r320RLv6C8YBv1017Y0tK2dNmK9euv+/a3733iiaf+6513e7BMA2nwfp+2vCupF4jyEC5VEweHhob6+vr279//3nvvPfvss/fee++aNWs6Ozuz2WwYhgEuhmEAbxiPkflmBCF0BFG047Y/C/lGGW1o50kyrwcFLgPE3rCQ/6Rt5oWrLr73X7+zffvvPvroo56eg/39KCEcZnsM42l8ZL7uJ5Suk3/6MeSbWGog02CpEUEn5tvQ0BCM0Hbu3Pnaa6898cQTDzzwwK233rZkyZJMJpPL5SzLIuY6GbmBZRcdu4/LOHrws+CN841wCoqF5+pZluN5YRjmZnZ0rlt35be+efcjDz+KuuqdH/f19ff1leNaKNkITePDvpRTZPQ19v76ZLyhI8ep0YfZ6gT88PDwwMBAT0/PW2+99Zvf/MemTZuuuOKKCy64oLW1FTQ8GYiTQBkx2aJcx23DkJ3kO3waew1G23j07mcyudmzu1evvvTWL9/+4x//9OWX/7Br1x7sE0W398AAmKflnz6C53RBmvDYqzn5jxwXb/gZVfsbEKMdzDd4FlR9qVTq6+s7cODArl27tm/ffs8996xevTqXy2maBvocresiCDAwoyjYRhjRHBczHCT+mU/N28D+FpQgbOKJHV1dc2644aZf/vJXb//1HTS9A2eAI6IV1/fg4PDAwBBEr0Grg6N08tMd+w2PzRtUOrySyDcRcYANfwdxgXOGh4cHBwf7+/t37tz5pz/96cknn/zOd75z9dVXz5w503EcBRdBEMBkg83CgWgUObHjCOxx9bmDExaPP3/NNC3fC1pb21esuODLX771Rz/68bZt2//rnXcPHOgZ6B/A0zOR3xt84MMoF6VUGkY/C6bhQ3L4aTsei/ImMk14k74cGiisPzxMbisQ+v7+/gMHDrz++uu/+tWvNm3adOWVV86fPz+fz1uWJUkSQCV9OUg5/I2KPkGOph9KkqIoRJ8Db8uyDMPQcEF701SsMpKqCMluruvm84XFi5dcf/0/33fffY8//tt33vmvffv2Dw4gTxn2jKL51hXDBTHGrnC0oMoIXmaj4h4/CdlI5MJOuHFc8j3uuxP2ROgBOdjz0ZfA8YGBgQMHDuzevXvbtm133333RRddNGvWLN/3wXyDEAuJpoCqTyaTDMNAT0+0Oth9kiQBbwdln1soIdlCKcmapqmqSnjDTQDmeBAE+Xy+ra1t+fLlGzdufOqpp95///2enp4B1EVD+vdIxSCNfv3Tqj1B3lFtBsqcXBWCnxwBZQBjuYGBgY8//vj1119/6qmn7r///uuuu669vd11XVVVCdd0Og2YidATHQDjN1EUASryhUL2OYYNoqxpmqIoaCKejpylcDd4ntfW1rZ69epNmzc/9NBDL7/88o4dKNF/cHBwCA224O4F3qek4Eav9lHan4uSO8p50aeqAIP4kvc5Em+w4YmG37dv359ff/2RRx656667rrnmmsWLF9u2rWmaJEnAG1Q6eF1AmROTvoq367oQHwPeuq6rqqppmmVZvu/ncrmurq5Vq1bdcsstP/jBD37//PPvv//+gQMo0wikGf+ccgCwIt+nLfLPjYsnSndsG3iDKV71LLCvOgjyPTg4ODAwAB8HETbo199///2nn3nm2/fcs2TJko6ODtDw4H6BbRPS6TSM4qIxVkVRQHwdx/E8D5CDGkeTfVE8xAqCoL29ffHixevXr9+6devLL7+8a9eugYEBuPOiwywIBZG4wLg/beyPOhWPTESfA++x/XTFxinHB6NXjcTWQG+SO2Z4eBjZ8B9//Mabbz7zzDP33HPPmjVrcrkc2PA0TcOeZqDGiZSLoojC1DioCVZYVL4ty/I8r1gsLlq0aP369T/60Y9+97vfvf322zjTqA+6FeIorPo+cL9Gv/mpCPUo33mCvI90XQAkfF60Xe4e8T9gT/Q/uGn7+/t7enpeeeWVBx98cPPmzVdddVV3d7dlWbIscxxH+m9ALopi2SOKLTXXdcEuM00TSC9YsGDDhg333HPPww8//Oabb+7bt6+/vx+66irhJvcuNI70u45yBU+tp47GGyCN/T2gk+HSEGyEMRyByxcVlCpJIm9LPgVy4vbv379r167f/OY3d95557Jly2bNmuV5HmRJQP/NsmyUN+hzsNo8z5s1a9bFF198++23P/roo++88w6eZ4sHWhUXIPli8P2j4V04ZQIdHPktk79xNN5wacb+BnJFyLUjXEHJk+PkteTiknsFbouozw7OgTDrjh07Xn/99W3btn3nO99Zt24daHhJklKpFMuygiAoimLbtocLhOA6Ojq6u7tvv/32X//616+++iqY38Qiizagn4b7rOov+Wnkm59mjSPyJswIS/LLyUWJ+lDhWfIqcnL0OOnyyQujSoIoAIi0Qszt1Vdf/dWvfrVly5b169fD3ld4wxlkifu+j6IcuVxra+vFF1982223fec733nqqafeffddGFWTm4/Ahq9HjHD4dPJzwP4g+qbqJ5weD4/IO8ppXKVN0EZviOi1i14gOJlcSuizq06Gh9C7Qxs0/L59+957773HHnvszjvvXLJkybx589rb27PZbKFQmDlz5sKFC9defvm99977zDPPfPDBBz09PUNDKPkElHPVjUXelmgXYkyQ30i+ZPT7nzbtz73xxhuvvfbaq6+++vLLL7/wwgu/+93vtm3b9vTTTz/xxBODg4MwlIoSJUfIBSJCc8yLApeSXGvSIC+M3kPwLIzcBgYGdu3a9dZbbz333HP33XfftddeuwSXDdddt3Xr1u3btyPze88eGGuRNyHfEN4/erxKrxDJJt/kdG187ihlx44dcCGIHh73KsB1HPepsQerGFSdQG6IKiEDMe3v79+7d++rr7762GOP/RSX//zP//zTn/60Z8+evr4++JLRdzjSm8Pxsd9k7JGqdzgNHn7uu9/97v333//973//hz/84U9+8pOf//znDz300CO4gHwTgR7311aBGfecz/DgyMjI4OBgb29vDy7gEK1SP5/hx51+b1XdfxOlF/2pxK6JHjxZbbjD4Hue4LvtZP3kz/BzD/EmUMF8rfqM6PX9e9B7VT//tHl4iDexlsftj8ndcEZ5ntLsy7zBIALBhXbVryLyXXX8zMNT6wocJt9kBDxWiM/o8FOL65G+LYqHkueIEIP2HrcjJyefaZyKV+Bz0bE18I6GDaLPnoo/b8LfOTqOP1J7wm9+El+I5HusiJMvRIw4cuT0aBwJ4Sc6fipeCtR/R6GSNjHIT51fVVk7Abbmq/7eh54dDypknlbS2MY7Y8yx6AccevPyxoDRJw9rkzMPO3rCHiDeJKgQbRPw436Vz8R8gys47vsf5eB4rxoZHS0dXqsS0FAO8ejoMK4oObE0Mooqnh+EHo0MjqI6hA/hd0JLFVeVymIslVVZKl+SvPnQyOjQyCiaYQYfD2wrp+Griz8Wf/j450RvB/IbSCPyVhNsluW7im4VzqqHpVIJkv3I9YAbhTyEBrzn2IPks6KxKehWyAfBq+A3kXfAooNehDogfGHQU2jJwtLIyFBpZGB0dHB0dBBfdCSpMNcL0RgpDQ0PlEYGRkYHRkYHMWV04Ydgd5DS0PBQz8hwz+hIH+I9PDo6hG6MEbSqzqH3KX9iCe0pAlNP0IyyUfTmw+V37iuN9g6P9JVGUIDu0OLWGD++CUql0aHh0cHhkcHhkWF826Cvjj6jfA78Epzzjt4Z3aT4I1C7fNIEQZdfdmg8dpT3IX08sdureMNxAFO5RmiCGRwhx+F9CG/ILYHXRp+KvqoKOV4pCK0/ilP/0QQA/MKhUmmgNNI3MtqP60BpBOW0VOb2jeJ5BP34hL7SaP8w2tYLXe8hvG3jSGmoNLRvZHjvyPCBwb6+4f4hhG9otDRYKg2hD4JMSzTvBMP5/9h7D662si1d9J+88d59Y9wO957u093VXcFlVzljm2BsAwZMNgaDyTmJqEBGILJARJFzFEFCSOScJAFCREWU41aCN9beWOWq090+fU8dj/Gqaw0NsaUtFPa35lxrzfXNb97gDRLJAAawNL3Rem2wXuus1xrzldZyZYQHho+2DPIMwc1yZbaATzdYriCAN+g21xbQVa0mWJkLvOzqymSBPxacQm4fvZHNb/wnUH3u1OfxRrYoEPCQqfunzE5k+P+UQWCD2UYjQb4DsrNpAxsZRGDu903qIWLutn1rWx/6BPIbYwDlueDaHh/rPhitVugK4K2/ujZYryCzGbIiRgInhQCXcGW6utYD+7s2mK8sJuuVyXINTAy4CtO1VXVllhv1l1KRUCNXW/QWq/HKDFnMQMXYolQqZTKZVqsDJQiQxCIA8rXZjJig1XJlMoN31livVeZrjeXKCHdIcBaBE3SvK6vRApmu9OYrHeID4FNXlqsro9msMxgAOxrOZjFbgbNCwAbHsGwfMgDdjAGfA/U/Of9n4W0zPgQtBAmEhYLABnJHtFqDwfCp3dvwQ/4LGQV0Op3B8BNJFEkmNcANFpUF+mWf2rft2GIxW0C+PcjlggyQVqMzQmagXQcQMV9dGa+uDGaLxmzVmi16CNIB1gNSYhf4bbMB0lqsWpNFozeq9EYIMlvMwMyvQfcy6y0muUZ1tr+3VFVaOjFMOefx5RKFUqaSyxQSsaSrq6u+rn5tdf3s7Fwmk8vlSrVaozcYzRZgmgajQa1TGS0685XWfK0yXWn0Rq1WZzCarCbzFWS0aLR6PQRyWExWM2TWavQyqUKoUMkUSqVMoZIrVXJwoFCoVBqdzmA06vQgB9lotmjBgRGuQ3bjKv7qeNuMDDmwRWAQmBHGp0ql4uzv9/X3Ly0tnZycaDQarVaL4GoAXxhwzhGwZTIZk8nc29tTq9VGo1GtVp+enTHn5lgsFpfLZTAYPB5Pq9Uin4X0EptqCPyeWq1Wc3kpWV9bHxsd57APJBKpRqPVaFQ6ndJgUOgMcrVWKrnkc/ZZl5eXRqMJGfPgLGWdyayRSM82d1b2uQeiSylktJrNQMHAZNTqNHzWDqO1keDl5hoXHlOBr2qqbyY3k9vbOro6uyIjIn18fHJy0GVlhLp6Umtr29DQyObmllqjkSvlnAMOc4EpkYn0RqXOKFVohHuc7YXFpQu+RCiUHnJPZmaZnH2uVK7Q6DQiKX9jZ6mtq7Ghqb6+obG5pa2xuaWhqbmxpblvYGBuYYGzf7C8snrIPRJfSpdX146OT/TQT97ir463bUqFzMg+NV+EOq5SqVgsVmNjo729fWZm5sDAAJvN5nA4+/v7XC734uJCqVQieGu1Wg6Hk5WV1dbWJhQK9Xr92dnZ1NQUGo3u7OwcHx/HYrFjY2NnZ2dInilCEVcqlXw+//DwkAvaIYfDYjBmc3PzvN74kEhNc3MLMDlnm7O/wztmX/CPzvlH27trHV3tG5ubcrkCpHbCUy5Qr9yk3tlbIZIq+ocGtnb2tDrQFc0ms0GvElzs9XXXRIX53L/z/dd//Ndv/vm7Bz8+emr3zPn5c08PjydPnty+c+e7W7f+6Z//5Ztvv3NwcAoOft/Y2MgXXOxz97t7u3Mw6J29LeHl+Sn/YGtviUiqzsjKmpyepc7Mkdu6o2MTW1o71je3D4+4W7tr5A6Sq4fTt99/+/U33z156vjg4ePbd368dfu2r79fQVFRb/9AYVHx0PDI7h4bX0agTE7JlSqT2fKl/Tkyc0aQQ0ZitVp9fHw8Q6fjcDhXV9c//vGPDx8+fP36dVBQkL+/vzfcMBjM9PS0Fnb1QqEQyRScmJgQi8UKhWJubo5IJOLxeAqFsry83EomNzc3UygUkUikVCqBLWs0VCq1qKjo3bt3b9++9fPz8/Hxev3a7fFju1u37jg7u7x54+Pn7+/j6+0X4BUeGVRUjJmbp+7srtcSq/v6+jY2tmDVcWDDFgtkMKo2txeravGdvd2rm9sqLaTTA+rE5SV/aqKznphXWpTRUFMVFRrh7e5DrCK2tbaVE8oD/P0LCvKJ9XV5BQWeb7xCP4QNDY0wGEw2hyWW8De312vrayOjoylTE4MjvQXF2R8i3zo8f/LDvR89vXw83/g5Orn829d3nF+8DouIyUajZ2andtlr41ODEVEREZGxnV0DpMZWVEbmG2/vFjKZzmBM02hoLK6nt2+Xxc7NL+gfHBaJLyEAOHDpf3X7/mSudDOS2sx6cXGxvb29oaEBj8ej0ei0tLTs7GwMBoNGo6NjYl67u9+9exeLxTKZTB3cOBzO6Ojo+Pg4hUKZmppaWFioqKgICQl5//59dnZ2QUFBXFxc6IcPCQkJRCJxaGhofX1dKpW2tbWlpqa+f/8+Pj4uNPS9m5vL28CAyMiopMSUlBRUeHikn5+/f4BfVHQYNjezhUzc3Vs9Oz+amBhrbW0dHR2HU7pBRqAZDPrKtY05PCG/pZ28uLqu1Oj1kAkyQkqleHVlgjLW0tFaWVaYF+jt/8LhZUZaRi4Gl5SY9Py5U0xsTDY6OyEp0fnlyw9h4TMzs8fHx5z9vTHKAKGiJDgkyO7ps+TUVFw+BpObnpoR5+Xr7vDcMTomLiY2yT8g5PadRz6+wVnZudW1xNWNxXMBd/9oNysnOysbt7i0NTlNLyuvDA37ME2jbW5vT0xNZWRldXR17+6xsbl5vX0DfKEYMgID/3J4I84cMW4IgmQyGZvNrq6uTkxMJBAIU1NT+/v7IpFILBafnp6ur68PDg7m5eW9ffuWQqEIhUKEd7a4uNjS0rK5udnf34/D4UpLS9+9e/fDDz/cv3//2bNndnZ2X3311a1btx4/fuzm5paUlNTV1SUSiRobG3NzcysrKwYG+onE2oSEeEJ5WW9vH32GMT0909jYjMPh8vNz2ztaFhZnDrjbMjlfo5UJBOd9vb093b1KhcqgB5klJrNeq5cvrtBzC3LqmxuYi0syhdoAmUxAeAaeSJysT4y1+3q4Pr3/6PHdR/ZPnjnaOzjYP7Oze2zv8MzxuaPjc8e7D+77+vuTyW0Hh/sLiww0Ns3jzctvvvv6f/7N3z98aBefGNfSRuodaMPgsiKiwslt7V1d/aWlNW5ufjgcnjJBPzjgHRyxd1ir84szCUnJ8Qmo4SEqub0bjcW9Cw7q6eudplE7urqSUtLaOrp2dlm4vHyAt0AIGU1fCG/EqG1WbjablUrlxsYGBoOpqKjo7e2lUCj9/f0UCuXo6Oj09HRhYQGPx2Ox2JqaGgaDwefz9XDjcDiTU1MdnZ00Gm1waKiqqioxMdHDw8PT07Ourq6vr6++vt7f3x+FQtXV14+NjS0tLXG5XIVCQSaTU1JSgoODfXx8HB0db9/+3s7usbPzi9dunm6uHo6Ozg8fPrp794cXrxyjYkJIjVWra3NC0RlfcMZis/b3D9VqnUyquJReyhWX4suzmdnxHByquq5mambm9EJ4KVXIZFK5XKjX8y8l7KX5saSYiCJsXm97z/jIGGVsdGx0ZGRkeJwyNkYZHRweLCsnlJTiO7o6ecdcoehsfXOOWE8ICQ12dHhRWVE7MDBAbmvw9Xe/dftf/+Ef//f9B48ePbS/c/vx//r7f7v747OE+IydXU53T0dGdrL7m5ff3/7h+1sPX730cXB89cOP9/74L//s8NwpNCwsIysrIiq6ta19c3sHm5vX09d/wf+yeNvWYMicXKfTHR8f9/T00On0vb293d3d/v7+ysrK4uJiPB5fVlZGKC9va2ubn5+XSqV6vR6CIIVCQaPRyisqUlJSCAQCmUxub2/PzMz09PR8/vx5SkoKFotNTk52cHDw8/dPSEzE4XC9vb1bW1tSqbS9vR2DwWRkZOTm5iYkxHt6eoSEvE9KSkbn4NA5uLi4hHfv3gUGBqSlJxHryyenhsbG+zs6mysqSqurq3p6+nZ32X19AzU1NZVVZRVVRamoGBd3J79A/4SU1OKyioqqmsamxrGxfrGYIxaz5maHwoMDY8IiMBnofFxuYX5eQX4uLhdbWFxQWFyAycVEx0anpaPaOtp5x4dqzaVQfNTWWR8SGvTg/hMctrCzs6ulteHxkx//5u/+x//zP/6vv/3bv/u7v/2Hv/mff/x//+8//O+//9rf7wOLdTjLoDW1ENMzk11c3D3cA3KyiuPj07y8/R7Z2cUlxBfhSyqqqlLS0jq7e7Z2doE/7x8UfEl//ukyDLF1ZPyWy+WXl5fn5+fr6+vNzc1JSUkvX750cHAIDAysqqpaXQXKZQaDAYIgnU4nkUjGxsays7O9vb1TU1NbWlqmp6dJJFJoaOijR49evnzp6urq4ODw1Vdf/fDDD0+fPXv58mV+fj6NRhOLxR0dHVVVVT09PTs721NTkwUFeVVVlZ2dXVOT1KkpWmtrW2lpWWNjw8ISQyg+kcn5I2O9qPSk169fubi8iouLn5iYzs5G+wf4e3i6enq9tHd68NU3//jdne8eP7N39fDy9PIJDw8rLc3jHa/z+du06R6/N+4vHZxeOb165fzCzcXFzfWV84vnbu6u7p6vX7q+ePLMLjAokNxGPuIdqDUSofiwtq7E843bV1999y4wrKSEQKyrcXCyu/Pjd/fu//jw0aOHD58+uG9//67D9989Dn4XdbB/LBRdHB2zZ+iT6BxcGb5mn302Q18or6yJiI6i0ek7e3uMubnq2toxygSMdz6Yr0mkRpP5C83PkfUYYuJIKM1kMmm1WolEwuPxJicnIyMjPT09P3z4QCaTi4uLw8PDHz9+XF9fv7UFSrVcXl7CgQSVQCBYX1+nUChzc3N7e3snJydsNru8vDwqKqq3t3dsbKy+vt7b2zszM7O1tZVKpe7u7l5cXMhksq6urubm5vn5+bOzs7k5Zl4e0HRzcXF99crN1eW1i4vb27eB9fXEza1VtVaqN8hF4tPtnbWx8aGMzAwsNnd/n7uzs7e5ubm5tba6Ntfe1RifHIXNx5E7uxZX1tc3t3f3dng8lkZzdnnJWVocT02MqSornxqbpE1R6TO0mRnqxBSFOjNNm6VNUicrqipKy/DdvT3HJ1yJ9HR7j4nJTfL2cXd55YHJKSopLsdiMTExEWWEktGx4YmJyckJ6gRlZnx0JierKCe7iMM+EokEO7trtcTy4qLSnu7hS4lyc3O3oaklPilxZX3tUia7lMnY+/vs/YPV9Q1cXv7g0Ijk8ie8/5PA2Z956jPxNVtcBQl7mc1mPp8/Nz9fW1tbATcCgZCfn5+dnZ2RkREaGurk5PSHP/zBy8srMTExKysrNze3vb19a2uLy+WOjo5iMBgcDldZWdnf389isSoqKvz8/FAoVEZGRnh4+IMHDzw8POLi40tKSrq7u1dXV6VSaWdnZ1NT0+Li4tnZGZvNHhsfra2txeNLi4tLS0rKSksJ9fWk2Vn66dmR3qA0WdQGSCmVCTic3aKiwry8gtPTC6lUplarNFqlQiWaW6TmFeY0tDQyFpbEUoVCBRZ9BoPCZBJLLznM2aHQIP/osAh0JhqHweXhcLm5WDQ2B4NDY3DoHGxOWMSHlNSUzu6uI94BZ3+9u4+IwSV+CHsX9C60va1/cGCstrY2KCgwPDw0IyM9Kys7JxuLzsnLycwLCoxMTspm7R0eHR0ymNO5eTk93X3bW2ytBtpj7beS25NRqeubGzKFXCAS9Q0MECoqsnLQH8Ij2ju6hCKJEV6A/yrlyj6Dt82mkUC30Wg8ODzs6e2NiYmJiorCYDCDg4NdXV3FxcW+fn4GPRhhAAAgAElEQVRv3rxxcXF59uyZk5OTnZ3d999/f/fu3bi4OGT1VVZW9vLlSy8vr6ioqNLS0q2tLQKB4Obm5gU3Z2fnr7766u7duy4uLhEREWVlZVQqVSqVtra21tbWUqnUhYWFuTnmNHVqdHRkdHSMMj5JoUyNj1HGxyh0Oo3N3pHKBEaT2mTWqDXS09MjPL4kL6/g7IyvUqpB8rfZYDCqVjfmCvG41s625fUNFQhzgqW51ao3mcQi0d70VI+3h6ur8ytvDx8/H18/X18/8MfH29fLy+eNl4/Xc2en9yHvW8ltnIO9lVV6RRW6vBKTnpEUHRXPmF3Z3dmfnJyKjIrw9HR/9eqlnd0TJ0dnN1cPT3dfL8/ArMy8fQ7v4IAzy5iuqMSvrW1IL1U6rXH/gNfT25+DQTPn50/Ozg6PjkoJhLCISF+/gIiomN7+QTHsz5H5+Z9pxP/Jyz6Pt22vE8Fep9MJhcLd3d25ubm2trawsDAPD4+QkJDGpiYajba6urq4uMhgMJqbm6OiokJCQmpqag4ODyenpgjl5ampqYODg4uLi3t7ewKBgEwmp2dkUOH/GhwcDA4OLiwsHB4e3t7ePjk5uby8VKlURCKxoKCgo7MzKTnJw8P98eNH9+7ds7N74vz8pfPzl0+fPHv04KGTk0NuPmZ+cUahFEFGtVoj43L3i4uL8/IKz075MplCq9VCRr1WJ1tenS3E45raWpbW1zUg2GsG6zGTWqU+OT1dn6H2JcdF1VZUzVJnF+cX5+fn5+bnFhbnmXOMWebszCy9hlhbjMc3NDVu7mxsbM/3DdVPTHdW1eAT4pNWlrbOToXcQ97S0hKdTu/r60eh0guLitvbu6jTs3TawtrKjkgoVSjkl1LREe+AzxeKRQqxWHlyyp+ZZVTX1pDb2xlzc8enp1s7u4tLy8y5hbX1zQu+wADdLMa+hH3btiuQA6vVajQaRSIRjUarq6srLCysqakhEAg4HC4hIaGrq5tKpXZ3d5eWluYXFFRUVnZ3d6+trclkMg6HQ6VSW1tbS0tLCwsLy8vLJyeBnjIag9na2uLxeHQ6PSoqqqamZm5ujs/nS6VShUIhlUorKysrKirW1tYGBwewWIyX15uIiIisrOzSUgIeT4iOjnVze/32rX9Tcz33aE9nkEMmtVJ1yeVySkpKsNjcvT0OlTozvzAvlYkVKtHSCr0Qj21obZpfWVXBe1KQCZIrRHPzw8RaXGx0gIuz41vfgISYxJTkVBQqPSMzIz0zPRWVlpSaHJ+UGBgU5O3rGxD4Ljcf29Pfsro5sbY53dhcHR+fwGQsT07MEAiVaDQmJSUtPDzi+XNnd3f39+9DEhOT01KzsJjCqsq6lZUVzj5rcopCrCUV5ONzcUUYTG58QqKvv79fQEBkdHQ2Gp2DwWRlo3PQ2PLK6sWlFY1WD+/EgvjaX94+Y9+29bdtD8NoNAoEgqGhoaKiouLi4vX19Y2NjdbWVnt7+7S0tPLyipKSkuTk5MLCQiqNdnp6qtFodDodj8djMpltbW3Z2dnx8fEoVHpnZxcWi42Nje3t7R0dHUXW35mZmc3NzYj3Xl9f39raKi4uJpFIYrFYKBTQ6TN4fEltbU1rK7m3p7+np7+8vDI7O6eigjC/QJcrhJBRZYBUcoX4kMvJy8uNiYnr6uqtrKzu7u4Wii7kSuHSCr2gBENqaZxbXlFo9AaTBTIZL6X8cUo7DhMb4PvCy93V/vGz+z88dLR/7uXl/S4oKDA4yD8wwNXd7ccH91+6unj5+Pj6+yckx7V3ky5EO4e8lbaO+ri4ePrMfHfXQFJSWlBQiIuL+6NHT27fvvPDD3ce2z1yd3f38337ITQqJTljamp6fX2ts7M9PT3zfXDYu8CQt2+D3D08n9rbP7F/9tLVxS8gIDAoKDAoOCQ0LC09kzI5rVCqwTYszIn5q+P9px9gtVq1Wu3JyQmLxWKz2Xw+n8vldnZ2PnjwwM7O7sOHD909PcvLyycnJwqFAoIgJJW3t7c3NTU1ODh4fHycxWLxeLyjo6O8vLyHDx8+hWWz7927h1Q6+fHHH5F1XVpaGoFAQKFQJBLp/PxcKBQeH/MWFxcKCvIDAgKePrF3sHdKTk7t6e1dXl46OGQJhMcKpUijlcnk4oNDdkJC4v37j5ycXublFzEYDK1OqdFJl1dn84swpJam+eVVpRbSQRbIZIKMGrn8+PRkY2ebuTjPKC3Cx0bEVxJqpqdpLA7n6Ji3x2b1Dw2GRkR09/Wtb27tslgHRxyB5EhjOL8Q7Xb1NiUkJiwtrh3sH29u7i0srDQ3t2dnYVNTUCkpyQUFueOUESZzfm11i8065PMFQqHg8HB/e3tnfX1zbW1zeWW1f3CwsLgIX1ba0dU5t7iwuLS8vLK6ur6xub17fHquUKnBLvwXxhux76urK61Wy2KxCARCVlYWCoXKyckpKiqqqKiora1tbm4eGx9nsdkikQgRTkH2uPR6PYvFotFo4+PjZ2dnSqVSpVKJxeKGhobIyMjKysrGxsbm5uaGhoZGOFm1o6NjcHCwo6OjuLi4oaGBRCIVFxdjMJisrKycnOyioqKa6trmptbWlraiopKkpOTU1GRUenJuXlYruW5nd00kPt/eWcfl5sbExDc2tszPL56dn+kNar1Bsb65UFZR1NrZvri6IVcbdJDFCDbCDRAk2d1ldLTXYLIySotKezr6N9e3Ly4EKrVGZzDIVcqF5eXUjAzG/LxYKlVpNGqdSm+UGczCc8FOZ3dDXHzs8PBYG7k7OwuXkpKZn49vbumgUulTU5TOrtbcvJzU1LTMTAyxtrGpqaWmpiYrKzMtLS0lJTUtDZWSmhYRGent5+vj7xcaFpaYnByXkBiXkJSQBIaUvILCzu4e8ccl2Z+a33/1mc/4c9tkzbYzplart7e34WhXQnR0dFxcHKJjx+PxJBKJUqnUaLUQBCa+yFoO+Ue9Xo/siyNb5hAEqdVqJpPZ3d19eHgoFovlcjkyZqvgplQqORxOd3f38vLy+Pg4Go1OSEiIjY1Nz0D19PRsbW1LJNJLiWxslJKZmRUXHxsdE5aSGltdg9/YXLyUCg4OWf0D/f39gxcXQpVKA0GARmCAVNyj3aGRnulZ+t4BV6mF9EZAJLJYIbNFvrfHbG2pzEhL6WrrOmTzNGqdEV4GWa+vDSbTAY/XTG7jHHJ1EGS+ujJZjSarxmiViC73afSRquqK6WlaU1NbUiIqLja5poa0uLh6eSkTifjLK4yCQnRCQlxiYmpZaVVVZU1RUVF8fHx0dHRUVFRMTGx0TExkdFR4ZERYZERENHjqQ3jkh7CIsPDIiKhoVHpGQ2OTUCRGQi7/VXT/9PWfwdtm1rbgmtls1uv1EolE+LEhm5vI1vjNbjO852zrK59ut9gmgFarVafTIfueNk4E0jkQVoXRaFQqlUhHkUgkAoHg4uJCIOArlSC7H2hgWqxajVYslvAF5+cXvAv+0aX0QqeXm8w6o1GnVCkVSjUsrgez3K5MkEmt1cuUaqlCo1YbIAOgmV2bgESuwXql0uuFctmpRChQylSQ1mQxXVktN+xFo8WiMRikCqXWAJmsVsv1NWSGILPKdHVpMl9qtRK5TKJWaaSXSgFfLBSIQfk5rd4CVLR1Gu2lWHIiEJzzLwQX5yKx+PJScikSigQCAV/AB39FAr5QcCHgXwj4fKGALxReCATgdwqFfKFQJJHIFQoTqA0P9sf+8vbn4o1ghiCBzNL1ej1CYkGkzT4Ns38K6i8op5+eQjan4BUwoHzCfetG1xI+thiNBrMZ7GYajUYIgmDWk95kQgQSgUy10QhKaegNOthdK/WQymTWWqwGi9UIGY3ItpIZeGwzYB1adEazxmjW6k2QAfBVAXnYbLWYANlNY7EoTUalXqM16o0WwFS8YSsDMqHVYrRYDCYzzCS8NgOio9ls1ZmvFdYrhdmsgoygEBkEmfV6IwRzkcCGu9lqNkMms1oPyXV6tU6n0+sggx7c9Dq93gCun1an0el1OoNebzAg9waj0QBBgJBlMIC9B+BkbjZDvxzetm5lC6xeX8PML5hrhpy1AYkAjDz89PUwz/2G4Xt1BSiiiK44oPKBG3itTWMc5iGBfnV1ZYLPIn0bdIOrK6vFaoG3tAHkML8RBuXKaLYYLFYIpgsCk0CYXybAdgD8RLPVYL4yWK4hk9VktFqMMKMRxhtw366voCur0WwwAeIy+EbXVkCJhD/hCjAJYa4koDiaAfXgynpttF5rr6411iu91Wr62F9hxqrlCtApgVEaLVa92aIzWyDk64CuBzog8E6AdAkIkWaYbwt3dPjawQRkhAqLcKBvmMh/Odnhz6pHZQP7FwcIor948j9+CPjiyEWB/xFwBeEqAVeArX1thgWVYMgt1xYzoO8Cbi6gi0OASnpDS0K42BazxWQ0QQgt2Wq1wBZvsl6ZzQBXQOk0WYwwfxVcNXDlrWbrtcVshcxWyHptslybjVajwQQBZw4X0QPXGUw3roCpm64ABd16bTYCm726Ml9f3ZDRYRBsJBMrzHWHrq6N1ivzTY4CnKRgMpkhCHQnK2BTQkaTDma/g64DuyuY52w1W63gV9uuyX986X7NM5/x57/SR91YOzBN2GRgYwEIgDAtYAqDJAHAaTSajRBYbFqB9ZvNFp3lSm+9MlphdwxX1DZbLCbkZrYA0zWbjXAFPNiMYWK6BRDKAZAAS/BO4M3AR4GbyXxltADiuclkMQF6C3D1oIEXmcANwQ7wh4GLMFnBSA47d7hDWAHFESn8Cx4DZ4/w1GH8YCMGMCMHCLXcbIZgOzaZP37zm5+AfEHQiUD7lS71Z97mi+FtBRcPmIzJBO4AqCaTBYKMZjNksRjMZrBSB/NoQBVG8DaZLVqEX2w0moxGEPmEIINOr9HrNQaDTqfXanUarVat04FtD6CxZwJuHBkeEBI/grfJYtZDBshkNFlMZiuS3gHIxEaz0QRXNLCAuKEZjK/gZoD0BuTDIL3eoNMadFpIr0fGVb0O0mkhpIA3PAYhn2OCjGDkBZ0PBh7ubEiXAx3UhjQAHn4N8jKbcf+m8IYXZma9XqdSqeA6Nlq4LIxZrwd1LrRapU6nVGsUl5eXcKlGq9l0bbVcg2H6Sm8ya7Q6pRwuGKTT6aTSy/OL07Pz4/OL0/NzcDs7Ozk9PT4+5p2enSqUSsgI2LsgucgM1taIK9AZ9FK5TK5UaPVg5g3DDDJ6kEEWBsSsVKkEAuHFGXg//vmFSiGXSy9FAgH8zMn5ySn/7OLijH9xLuBfiLRaw0e/AKzZaIKkskuFUm6A9CYwJIOPBZ8PowtGGcR1X1tAdMdogN04nJX0SZLaZwzzVzr9V7dvBGy5QsZi783Ng9j40tJSf9/AwcHR1vYug8lcWGCury/NzdGbmhp3d3f1OsgIXVnMwJ+bzBqR+HRpZa6zs/PwgLu+vkFqqE9OSQgLD/nw4X1ISHBoaPCHD+/DwkKDg4MTEhL7B4YOuUdqjVYmVyFUfoVKJb683GOzR8bG+gcHGXNzfKFQIpXKFAqlSilXKtRajcFo0Ol14+OjyUkJoSHBIe+D0tNSRoYGeru7K8sr4qJj4dVxeFgofPsQERsTv7i4rFFrAU/XYtJq1cfHPCKxtqOzfWtrk88/l8ku5QqZVCqRycAGiUqt1Bt0JtisbQMQmBB+zB37TflzRDpTJpMuLy91dXUxmIyGhsbsbPTg4HBXVw+ZTKbNTE1Nj3V1txUWFizML8hlSo0K0ukgPfDY8kPu7uBQb25u7uLiyuTkFBaLjomNjImNTE5JSEyKT0pOSElJSk5OCgDtbV19w/zC0vrmVntnT2Nza0NTS3NrWx2pIb+wKDIqJjQsPBWVXltHamhqaWohN7eSW8hkGp3GO+FJZRJyW1NgoE9cbERE+PuE+KimxvoKQhk6OzspPjEzPROdjcnJwmRl5sREx3l5+UxPUWUyOaIEd3zMGx4e9vf3DwwMxGIx1dVVpAZSY2MDcmtubmxvJ6+vr0qll2CsghdqcB1OZKZ2M3j/dvz5jX3LpUzmbGVlBYFQlpCQ4O8fkJ6emZmZVVJSvLTM7B/sqqgqKykpmZiYYu0d7HN4x8dn5+dnF/yjhcUZUkNNUlLS0NBIT09vfn5uLbFqcKhvfoHBZNLn55kLC/Ozs7Pl5RWo9IyW1raJyem2ji6PNz5Pnjk+fPz0mcPzx0/sf7j74Kt//fafv/r61u0fnto72Ts6P3NwfmLv5OT8Iisne5Y5c3bB6+klozGpi4u0CcoguZXU0dFaWU6orqikTlH32YcigUQkvBTwRdTpmdTUNAaDKZFIEKrWzMxMdnb2nTt3ED7W48eP7eD27NnThw8f3LsHyixUV1cdHOwj9cKRknzwNAMsQmztV3LYn3mbL+DPrXq9bnV1pQRf8vq1m6Ojw3ff3fqHf/jHW7fuPH78JOBtQGNTbWJS9ItXjo5ODm/eeAf4B3m98Y+NTcDiMITywti4Dy4uTrdu3fL08HofHPL+/TsXV2e31y/9/Lx8fd/4+fn4AZ6F14sXL318/IhE0vLy2v7BEZXGGB6l9A+O9A+O9vUPE+sak1LSwyNjcjC5Pb1DAwNjg0OUwWHK8MjY8uoKX3gmUwj6Blox2OSlpWnKeG9LC7Gri1xRXlZZXk6dovG4JzKpUipRCPjisTHKhw8faDSaSCSSyWRTU1OlpaVhYWFOTk7R0dFkMnlsbGx6enpqamp4eKiwsDA8PCw4OLivr5fP5yPZVQhzBIEZiU/81vw5BBk4HHZ3T3dGRkZgYODjx4//+Z/+5Ztvbvn6+uNw2Lr6ytCwwFeuz1NSkrOz0VFRcffuPkpKSq0n1fX2tZWW5UVEvHdwcExMSMnMyEpIiIuNi0SlJ+fnY/LzAd8Ii8Xk5ubm5xfU1BBnZ+eOT85OTi/GKNP1pOZifHlRCaGomJCeiX77LuSNt39oWBQut7iwsLy4uKq0rKahqWVhaUGmlCjUQnJ7TXCIBy43BYWKQqXFtLbUV1aUVVdW0abp66tbc8yl5kZyXV1DYVFxckry4tLC6dnp9vZ2e3sbkUgkkUjl5eWlpaW1tbXT09Obm5urq6skEolAIFRWVpLJ5K2tLZVKheweITFKOIAIVqc2yD9jmL/S6b+6fSOsGK1Ww+Md0el0Eqk+Ojra2fnFG0/vyooqGo3a0kqKjQuPj49aX1892D8YGhx1eeXe0913dnaiUAkPuNu9fR2paagZ2uzkxERFRdno2ND2zrpACEjm+/vs7e2ti4sLsVgikyk0Gq1ao2OxD0sJVUHvw5xfuD13dn3u7Gr3xPHW7Xvffv/jnR8f2j157uDg5uTk8dLFKyIqtqevRyITyFV8IqnY4flte8fvHz/+xt3doY5IqKwora2ppU3PTk3SibWNbzz9Xr/2DI+IINYT2fts7tHh1NRkZ2cnnT7D5/NPT0/r6up8fX1zc3NbW1sbGhpcXV3T0lCjo6NnZ2cqlepT7WZbWPpTW/+VAP3M23wZvC0qlZLBmCUQykgkUlZW1ocPYXg8oZZYV1tbgy8rSEyKRmMy91i73EPu6AglwD+IQpmUysR6SM4XHo2ND6LS0+l0xsTEBKEcPzo2uL2zfn5xzGLtdHS04fEl6+vr5+cX0kuZTKaUy1V8vmhtY4c2wxynUCkTtOGRCVJDayoqOy4+Nb+gdHBoYnx8dnycMTZOp9GZLA5bphQr1ILuPlJyakhbR2V1TV5hYSapvqKcgK+prpmaoK0ub62tblOpjInJafrs7Ob2hkgiEF+KjnhcDofN4x3x+XwWi4XH4588efLgwYNnz545OjreuXMnISFheHiYy+WKRCKFQqHRaPR6vdFotDlzm3H/puZrer1+Z2d7dGykrY08OTlZXV2Vnp4+NDTa3t5JJNb2D3bXkSrrG2rW1lfX1zeGh8ZQaVmLC8sKpVSpFnF5u2Ryg6+vb2FhEb4Un5mFysxKxeVmFxXlodFZb9/6v3jhjEKh8PjSOmJ9a2v7wOBwX/9QeWVtQVEZNrcIiyvKQefHxae+8Qp46eIZGBSGxZXk5ZXjcAQ0uhiNzSfWE6dp42cXnL7BRmxeAp0x0D/YVEfCt5Lr8CUFmRkZqLQsDDo/Pw9fWFiKyy3A5eUVlxbPzNLm5pndPd1E4g1Pt7q6uqysLD8/H4MB40sR3MrLy6urq8vLy6uqqpqbm8fHx3k8nk6ns20uf+HJ2l8UP/+M4/h42mq1qtVqGo06MTG+uLSwurrS3t5WVla6srw2OTk9ODjA5bLnF+lDI32jo8PDwyNdXT3VVXU7O3sisYC9vz45NYjBZDx69PDdu6Do6OiIyDB3j1fOL+yfO9s7OdnfugUqmtjZPXF1BUT02Nj43NwCXG5BYPCHN94BLq+9nF+4P7N/+eCR/a3b9//xn76+dfu+i6u3i6ufk5PHgweOt27f9fH3ra4lsA/WOnuIaRkfOrqrifWFpQRMe2djYWFuaGio/bPnjx4+e/rU2cPD+5XL66cODvce3auurW7vbMdgMSEhIV5eXt7e3tHR0U1NTRsbGwj5GtkrRpJbAwMD/fz8IiMj8Xj8xsaGVgsW7nBcGSgbfLxOX+jvX92fI3IgQiGfx+Nubq3X1FTV1tYMDw9z2AdcLu/k5FillnL2tweHerKzMzEYTFlZOZnctbvLWlldKipBB4d4v3Z39vHxbm5uqSUSY+Ojy8qLO7tax8aH+vq70tKSfX19Aa9mbHx2lrm9vXvIPTrk8ja39tY2dhaXNmgzc41N7SX4yrz8kvCouGx0/ugYdWKC2dLSl5mZ6+XjX1hcuL27xhdxifVFTi9+eOZ46/GTbz29nhPrKgqL8lGodBQqKyEhraiobGFxZZY5X0Wsff3GfXhs+PDo8IB7sLq2ymAwaDTa/Pw8k8mkUChNTU10Op3P54tEIh6Pt7W1NT8/v7S0hPQDhUKByJwgJv4bxBvhuy0szjc01KWmJfv6eb8NDIiNjcnMyCotLe3r7xWKzs4ujqap49HREaEhIRg0jjG7cHZ2zuMdUib7ifVlOWhUYmIClUojk8nB798VFuXhSwvQmMzUtCRv7zeOjg5IbkN5ecXK6jqfL1KqtHKFRixR7LEPBwbHGhrJ5LZu2gyzhdxRjC/PzMIlJ2dnZeXh8VV1DY2MOYb4kn8pP29urQwMfp2DTUhOjUhJi25qJhII+KKiooaGFlR6dn4BfnuHPTM719jSispMX1pdlkglIrFocnKyrq4uLy8Pi8WmpqaGh4cjto7D4fLy8nJzc5GD0dHRw8NDpAwaMln7zdq31WpVKpUDg/0RkR++v/3tc2eHVy4vnz93unPnBxdXFywOw+WxheJTxhw1ODjQ3f01Ki19n8OVy5U6nVqu5B8d746O9eNw2IWFBTKZ7OPjnZ6RGhMT4e7u4uHp9vq1q5ubq4+Pt4uLa1BQ8NgY5Yh3qlBqpTLVLmt/YGgsB5NbWFzW2z98esZfW9+sIda7vX7z3Xd33T38aomN27t7EqlYqZZKpOed3Q05mKS1Dcbk9GBLa117Z0tVFRh9KZSp3LzC9Mycto6esopqQmVVR3fXIe9ICVPwurt7cnJyQkND/fz8nJycfvzxxydPnrx8+erNmzfe3t5eXl6vX792cHCoqqpis9lINQYkUwfBG5mvfSFXDn/Ml/DnEAQdHu5XVZX7+nqRSMShoQEyueXdu3fJKckdXW1nF0cXAt7k1IiH5+sXL5xTklP3OVylEpBGNLpLgehoanoUg0FPTk41NTWHfniPy0XjSwsrqwjj4yOzDDqTCdxpTU1tYWHxzMzsEe+ELxTv7HHyC4p9/QN9/N7mFxZPTFHFEtnJ6fni0kpTc+sbL7/IqLjBkbEDLlckEYkkAt4xh9xWn5ufweKsM+enOzpbyOQmAqG0pqZmfmFxdJySV1B098FjB+eXGTnoXTb7UiE3mIxGk0kiuTw+Pt7b24OlK2oTEhJaWlrp9NmdnZ29Pdb29s7o6FhERGRPTy+fLzCbQCFiK9B2Au4cKAUB4gMIqX4xyL8E3mazSSwWzM7Sqqsr8vIwaWnJoaEhjg5O794F4UuLmXO0to6GvPyczExUWloaOgdbU01aW9uQXAoVKiHvZG9ktDcjI6O6uqa0tBSVnoYvLUKhUt4G+sfFx6SlpaSnp6WkJAUFBUVGRo2PT1BpMwNDI1W1ddU1dWXllWhsblUNsa2js39wqKKquqGpmTpDb23rqKoh4gnlBcXFNcTanr7usfFhYl0VobyYxd6anZ1ua29pa2sprwDRkvGJia6e3vSs7K++/vb7H++Gx8TOLa2cCYQqrU5vgBRKlYAv3NneqaurLywsrqmpXV/fOD09EwpFgFjHFzCZc1FR0YODQxLJJVx6+tMQCyia9SXB/hLz8yuglAPxeFwmk97W1pKenhoa+h7sLrwNjImJQaOzK6tLs3JSctBpw8MDw8NDzc2t2VnY9vZOBnNmc3thdLynprYsPR2Vnp5RUFBYT6praKxPQ6W4ur7y8/MJCg4MDX0fHPwOzgsPGR0dGxkdayW3F5cSpmn0haWVhuaWktKy/MLCYjw+FYWqIRJZHM7p+Tlzfp5QUZGUmpKNyamprSE11BOJtY2NpJkZKpncQiCUdvd0VldXFRQWlBLKCktK0jIyfQMC/QLfxaekkVrIUzOzOyz26fnFyuoalTrT3zeAxeAqK6up1Jnz8wsWi02nM2Zm6NPT1Pb2ztjYuPFxilyuNJksZhNgcSAmjXBqvphlIx/0V7dvq9WiUitHRocyMlHvggJaW5sXFub29zlc7tHCwgKpoc7Xz72qBr+1s3opBRHp4+NTGnU2L68gITEOjU319n0VEPgGjclJTEyqq6/f2d2empro6upo7yCvri4fHHKOT4643IOhocG6unoGg8nlHonEEr5QJFMod1lsQkWlr7//+9DQju6utc0NvlCg0VFnN/EAACAASURBVGkNRkilUfGF/NPzs9PzM/Y+p6Ojs6uru7e3Lzc3LyAg4N27t2NjoyRSfXx83FP7p/6Bb0sIZdss1jaL1dnXHxjyISwqrri0fHh0PCY2PiAgMCkxeXaWeXpyJhZfnp1d1NbWubt7Pn/+wtn5pa+vf3Y2emFhUavVw8KMiD9HGDI2atSXA/2vjvfVlRWCDIfcffosdXh4gMNhSSRimI6iE4vFe6yd4ZGere1lmVyoN2iMgJeuPTvlLy4uUWlTc/NTg0MdI2N9S8uLs7OMnZ0dyaWYx+Pu77O53AOZ7FKjUYEQqkZ1fAIG0Qs+X6VWA0YBuJkkUtnaxsbI2ChlaoJ9wLmUS/WQHjJDJkBmgfSQHtwMeqVKtb9/sL9/eLDPXVhYHAPJpyAwsrOzQ5uhtXe2jYyPrm1uyNUquUZ9cMwbnZgcn5xeWF494B5NTVNHRkZnaHSBQKQD+niQWqXZ3Nzq7x/s7Ozu7uoZGR5dWlwW8IVGwJYDFC6ERgmEOOGB/LfmzxH5ZaNRr9YoFQopBOlhOURALTObzQZIp1JL9QaF2axFRDAtZqtBb9Tq9FqdWqeXq9QitUYKGMc6IAQDGQ06HeAzQZD+hj0C80kgI2Ar33DgYTlboF9pNmn1OrVGrdaqdZAOJjMBChssV2sC4ojgmgNaIWBKGYwGvVGn1WvUWq1GB0FGQMXRamQKmUqj0kF6mNxm1ZtNKq1WqdGCxBOjSaPVqdVarVaPeGkEQoMBUqk0SqVapVRr1FqD3gDUEsEc7RqQ6IBwKkDZCjMsgdzvF2x/dfuGfwvgH18B1WAgPAyTtkARDfhaA+qR9cpgsRpg4qIVvhBAkh1wgIC0rM56BSHsT8AXAzKzZosFUEeNRoMF8AsRvhq4nMiMF6awAe6r5cpqMptMZkAfg23JDCvRAmVScKmtJis4AHiDyw+UVhGFTZsQ7g23FXAnYYaVGWakwlkKsOo1IGXfzK8R/AAF6+raCpjGFphyCVjH8DgNdI7BKfgGfxrMNf6iWAMovhDeMGA38uPwMbzVDwg9QH0a8FMBSxWmAdsoAOChCaYkm2FVaGQLEXQawPMFtNQbXthHYi/gKcPSW7DuMUJOh+8BJrCWMqCrA/FhcG8yA6L5jQIvDAbIQ4H7AqCbw1rU4PvdMFxBb0WUsmEuLay1C5OYbYsp+PvBpgsvuhCYkcWWTdUcwfvT+y9o218a7z+VpEeeQfoBAjboBx9vNoV6y5/ijWAMM38/sgGvAN5mYNCA0Q+L7MFUfth8kZ0J4ANAIgDYiYbtHvgC5PxNtgPgGIP0AlgIG6AOk0zBQ/A83CUtiHD6v7dsRj7l4/1Pv+Snn/TRxG2Qf2EL/2L2jfzkX0D+f/IQofoibhxkGpkgm33DFH9g+2DiBKciw0wxgAzi7RHnCzsBIJCOHCBBD7gr3DDCLdYrCE7jscA8V9ON4PpPNRRAP4KH4V9Y50ekkb+/4/3TFfs/QRomdFqQaRpi2YC4D1N9Af/XbERSDOC0DmC4tgAWAraNZYCc+vT+ZqgAbw2Y8R+VycFwixzbBMlhWXJg64hX+B3vX1wB5OFP/uzj4P1/gjeyhDGD5D3gwy1wVhEyUTeZQOK+BYzfILPQCDck9/hTXG3HyPYU0g8QyW0jCI+CyR2c6WdLGrgpQYCk2wNPDrKb4DQW2IZ/8Wt/t+9fFW94ngVXBwFzcovFpFTKRSKBVquGID0yY1cqQd6CSqWSSqVyOaAMI6gjACPcUGTZhlg/IrgvFAqlUingj8LeAzKZDEZwA8LEYDlxU0fEcgVqj0Am4FVuZvU/B/x3vH9VvOEQhQlOxzKZIJVKMTlJIRJrjo+P1GqlSqU4PT0eHR3p6ura398fHBwcGBg4Pz/XaDRGI1hMI3nFWq1WpVIpFAqZTCaVSi8uLtbW1oqKihobG5dXVvgCwaVUeimTg+oDao0WrmIAz92Ab0dyVpCp3M0Q/TveP78Cvz7eZrPRZDbq9drT0+OOjrbCwnwOhyWXSwWCCyp1qpZYSyQSt7e3QREKEmlycvL4+FitVms0QH+Lz+fPz8/39PQ0NjbW19cTicSKigo0Gv3ixQt/f//snJyq6mpiXV0didTQ1Dw6Ttne2VNrdUa4mgwyd4OThW7G7j8Njf1u378u3khqGDBUlUqxurrc09NFJrfs7m6fn59ub2+WluELCgvqSfULCwuDQ0M1tbVoNJpCoezv7wsEAplMtry8nJub6+HhYWdn9+jRo9u3b9+5c+fu3bt37ty5d+/eo0eP7t6798Pdu3fv33/yzD42PqGrp1cqkxtgYQ846c9qsliNIJgCnPzveP97tg2e+7Xma3BczGLS67VCIX90dJhCGZuh0xobSe3tZGJdjZu76zP7p45Ojl5eXs+fP3/0CIjzubm5xcbGVlVVra2t0en0/Pz8vLy8qqqqlpaWpKSkNBSqvKKis7Ozv7+/vaMjNz8vIzMTl5fX0dVFZzAPuEc6PVCbR9bfkAkINsBKIjdZvL/4wb/b969q3yDf2mwyQTLZJYu1293dOTY2wmDQ60l1JfiipOTEx3aPfH19EpMS09LS3N3dHR0d3717l5iUhAiystlsBoOBw+GysrLQaDQWi0WSvhKTkvLy8wuLCtEYdFhEeGBQUFhERH5hUXdv38bWNlxpCNQes+WcgsDL7+uxX/T0nz/8lewbnpMbjYbT02MqdYpIrGlpaRoaGugb6C0sKggOfvf06RMsFjM6OjoxMZGWlhYeHl5TWzs4NDQ/P89msyUSyeLiIhqNDg8P9/HxefXq1Z07d27fvv3w0SMnJydHR0e7J0/u/PjD93fu3H/40M3dA43FUSanlGoNLKECEoxtsbYbCY6fx8Z+btxISP4nzwakKZCSgT8Psf38PX5+2f4Kj/7/FF9D1mBGo2FjY628vMzX1zskJLiwMH9kZKi+nhgXH/vY7pGDo4Obm5urq+udO3e++eabp0+fOjs7R0RENDc3s1is+fn5/Px8AqG8q6trcnISg8Gg0eia2tqh4eGx8fGu7m5sLiAa1tbV0+ize2yOSCKB4MEbWXnDleCs8F7XL8fuPwH738P750gjIdXf8f4PQzE2vHk87vj4aElJUWVl+cBA38bG2izs1b19vCIiwkHeaVaWh4cHQDoyMj0jo6amhkqlnp6eLi0tFRcXd3R0LC8vHx8f19fXZ2RkJCYlIUkCWTnZYRHhhSXF45OT53yBUq2G68SB1TYI48ElIJEZI1IS9t/D+NPnfmbctjKgtsj573j/h0jf+EJ4R8RkNipV8iMed3KSMj4+Ojs7s7GxxuGwZmdnoqIji4uLe3p6+vv7ExIS3r9/TyAQenp7mUwmh8MRi8XLy8t4PH5kZITFYolEot7eXhQK5enp6eEBl1IBrFKv4lL83OKiVK7Q6oGMNrLmRpRAkGk5UvQTBOU/037H+y+Ln8P6OGAxJhYLZxkzYWGhL148d3V9FRsb3dvbPTlJ8fZ+8+KF88uXL1+9enX79m0kIdve3j48PLyxsXFra4vBYJSUlFAoFDYs+nlwcLC2tsZkMhkMxuzsLH12lsFkbG5vn5ydq4DOr0EPS7jBazALPDNHwqvXYG12Q0P7TzD/He+/GG84Qg4dHx8NDQ1ERUfGxcUUFRU0NNTPzTEYDHrohxAUCqjsVlRUvH//3tPTMy4uvrCwsKOjY2FhAVHdxuFwnZ2d5La24uLirKyszMzMnI8tKzsrPSM9Mzu7oqpqcWWVLxLpDMDEERGYT/FG9llviAx/Mqv62AV+x/vXwNtoNBwdccfHxyoqCE3NDWOAkjqyuLRAm6EmJMb39ABBVh6PV1VVhUajh4dH9vZYEolEpVLJZDIajYZCoVrJZAKBEBAQcP/+/YePHr16BdIDvLy8XN3c7t2/f+/Bfb+3b4dGR0/OzmAeHAiv3YRZwC4sYLYgIdU/AfqnJ2DIf8f7L8bbbDYaDDq5XHp6drKxuVZdUxX47q3ba9fMrIzq6srwiLCOjvb9/X0ej1deXp6VlTU6Orq3tycSiRA93omJifj4+NnZ2YODg6WlpczMzOycnJbW1qmpKfosvbevLyo6OjomhlBRfnR8rNHpEEUteL4GK/PBeAP+G6yKaGO2/ITzz49sy1Dk4Bcztd/na5+frwHxK6OByz0YGR0uLcNXVlXAqjst45Sxnp5uL683Hz6EolCo9HSUl5fXq1evwsLCkpKS8vPzGxsbh4aGSCRSamrq/Pz8xcXF6enpxMREbW0tBoPJzs7OzsnB4nDF+BJyextjbk4gEoH5uQFCoisIRw6eqQHjRtbfPwf333n0O96fQfSzu+NXV0DCjLPP7uruRGNyevt6zs5PgZS27HJ+Yc7HByRtBQW9Cw4ODggI8Pf3fwe36OjovLw8PB5fWlpaVlY2ODiISKwMwZUOk5OTgVXHxqSmpZWWE8jt7SPj49QZ+tLKKveIZ4DgCtwIzxLcw2RHED///Mr5d7z/IryR9bcFjp/L5FKhkH8plWi0arMFyBtyOKzMzPTOzvadnW0ej3d0dMSFG4/HOz4+5nK5TU1NjY2NNBotIyPD09PzCdxiYmI6OjpXV1fZbPYskxEdG/PK1eWJ/bPnL19GRMc0tbRKpFJEZ/kjzQGMSYATAacCfZya/fT3UzP/b4v3p1smtovw52Bve/HHcCQcUgVboiYgvwkzEsAWJRJUX1xc4B4dKpVAOQMpSqzVatVw02g0e3C7uLhgMBgDAwMdcJuepu7v7yNS++cX59QZWt9AfwecbDIxObW1vaPV6wH1EfBpwDYownCyIEw5G0sGPvgJc9sRvFP00+/8bxNf+wlvOA6JoPjJdUDIn7DkoC3GDPv2X+J9DZjp4GrDJHZAO4ONHnCbTCajXq8zwuron9IUEW6T1WoF+Qp6vclk0mg0SqVSoVDI5XKVSoU8CRkhHUhO0ADihFKpUCqVKrVWpwdbNLA1/4Q32C+BvwQM80/Yw9/m404KvIH23xhv4Odg2XNYOxwsVQBUQFf+2oqwDW+SB2ASCyxB/pMcHZKkAsMMegCiswyTTRH+8g0hEZz4mHWAUFERdUcEfpuwAsJkQh4ix0ifAMwnkM5ngdnK4ABkEyB4f3wEm+416F9AxBwE3IBG8se0Xus1SFEAYulwapgVpDB85vb5WcCnI8RffPxl9ktAPwdsfnAlbhj4N77tRkYUAI9QjMGOJ8I0/WhFID0IBvmTPQpw2RFo4foS4NgGMHIM6G1w+4jax+wTGDmA6Mf0XBuJEfkXmLYIyprYHIOtD8GvBO8DegmQvLYYEbo7bO436rsIkxKmK38WbKRb/MUg/hfe4AvhDUJRN3gDqGAxe7DGsQXGP+rHAuA/qkr/5DVtSNtGRhveSGEc5OGnZ3+BNwISYs3IsY21aDtl+xeEkY4U0fi09yCvvHEMMMYAb7A5DnKckDDcjT420HX/jGUjveG3ad9WkJoHJ1Dd7DNYEeVYZAC+SSH4GI35OCSDXHgEyF/YLoKBzew+fdkvXgmrtwL/bHPmyDMIcrZ3AIM/3JBO8GlnQv4X8Qe/wBtJUYMTjkAJBuATrpAD2NV/zpP/lvFGHPKNL4fjjB+nXcCgEZvW6bRGI6CR6/ValVqpVCnVarVKpbZVqFKpwC6G0WhEmKbItEupBC9Dil3Br0defnOPPKPT6T4ds23Ym0wmAxDOB6mnv9A/tHl724Gtc8BprZDeAOrJGMC3ASkKyLANJ6WCnH5kCP/v689vBmBbdh485wIww8kDZotRIhFRqdMHB/unZyfzC3N9/b3kNnJ3d3d7e3tbWxuyduro6BwYGDg5OZFIJFwud2QEUI+7uro6OztpNNry8vLIyEhPTw/yL+3t7Z0gBbt7Zmbm4OAAyRa2zdEQS4UgSCAQbG9vb2xsnJ+fI2XTPjVipGPZKjHpdDqNRqNSqdgczura2trGxoVAoFSrdAa97WYwQgjeSKLhZyH/bfpzZEaBzM9BHjQ8OQflYCC92WI0QPr1jbXQ0Pdd3Z1U2jQak/P8udPt27ft7e0fPnx4//6Dx4/tnj55+ujR4+fPnSkUysbGRn9/PxIzefbs2f379+PhquFv3rxxcHBAaIoPHz60s7N79uxZcnLy0NCQUqlEKOjIWIAAqdPp1tfXGxoa8Hj89PS0TCZD1mZIt7CBLRAIeDzeycnJ8fHx0dERm80mNTRgcLi8ggI6Y3b/8OD49OTk7BS5V6iUkMkIUpGRCfznvPpvE2/kKiNjJ+LJEaV/kwnS6TQyuXSWQffx9W5sJK2sLDGZsyhUWmJiwsBAP4VCmQaNOjY6jseXRkREMplzOzs7Y2Nj0dHRWCyWRCKFhYVVVVX19PSEh4eD4tEdHb1wayWTS8uArPrAwIBKpQK+Xa1SgIW3Qi6Xy+DG5XIpFEpkZCSBQFhfX0doy3K4ITkJAoGASCRGRkaGwi0oKMjLy8vB0dHu6VN7R0f/twHvQ0Pfh4a8Dw0Jeh8clxBPmZw4v7j48136bxZvxE8iwFtBZSaQsy+XSxcX53t6u9GYnAcP70dEhtfWVlMo4zgctrS0lMMBJEO1Wq1Uqs/OLnp6+pKTUxYWF3d3dycmJlJSUmpqaiYmJvLz8/v7+ycnJ0Pfv09JTi4pLi4rLUNqUqNQKAwG09vbK5fL2Rz2NHW6uQUUKkWSDerq6qqrq7FYrIODg5+fHwaDqa6uJpFIDXAbGhqam5vb29vD4XCBgYHJyclIydt79+69ePny7bt3CUmJaenpqAxQMDo5NSXkAwC+s7v7gMs1mk1/5hD+28Qbseyfwl6gMJXJaDScnPAqK8tDQoIfPXrwd3/3N7dufevj41VeDorRIhp1SqUSLudlOj/n9/b1p6FQC0uLu3s3eJeUlPT39zc1NTEYjJmZGV9vbycHB/unT58+efoEbk+fPo2Jienq6pJcXk5NT2FxuFcuLo5Ojo/tHiNpBvfv37ezs7t37x5S39je3t7R0dHJyenFixdxcXH19fXz8/PFxcVYLHZycnJ6erq6utrNzS05OZlEIs3MzjLmmIw5Jp0xS52hkRobsbm53X297P19o+m/N96fGjecawfW1iaTUamUs1i7NNp0SUnRDz98Hxsb3dnZsbm52QTvbWxsbIjFEqCpozMcHBwODQ9XVFXtsvYODg+nqVRUejrCLafT6dxD7urKanxsXGV5+cQ4hclgzNBmhoeGG0gNBAJhYGBAqVLxhQIWmz03P0+boZHbyFgsNjk5ubKycnp6mkaj0el0Jtzm5ubm4ba1tbWxsUGhUKKiox0cHF69euXs7Pz48eOvv/76wYMHz52dPb3eePl4u3t6vHJ1ee3p4fzqpYubW0FR4dLKsh6UJwUr0M/efpv2jQS5ECuH02lBJNJkMup0GrlcurG5XlFB+Pbbf/P29sLjS5hMZl9ff2dn58jIyMnJqUajVSpUdPpsZ1d3Z3cP7+SYd8xD8E5JSSkrK5ucnGSzWGsrq2kpqb3dPTwuVyIWCwQCNos9OTHZ0NAwMjICypPpdBqdVqVWy2Sy1dXVxsbGyspKCoVyfn4uEAjEoJTrTZNKpaDQsUZzeXm5s7vb1taGRqOjoqJcXV3d3d0TExPTUKjMrKys7OyMzMzAoHfPHOxj4mKz0DnFePzwyMjh0Z/rz4FqzJdtXyi+9nHYBlXnYF0MoGlj/LjUps1Q09JS/vCH/3Xnh9uB794SibVDQ0N9ff3l5RW7u3sKhVIgFDU3t9STGmj0WaFIfHJ6MjU1hUpH5efnt7W1tbS0MBnMeSYzMT6eVFe3MDe3tbG5sb4xOzvb0dFRUwPkmJF8QaQgHWQ0bm9vI0Uouru7V1ZW1tfXNzc3t7e3dnZ2tre39/c5crkcXsIZ9Xq9XC4/PDycmprKy8vLz8+nUManpqepNNAokxMVVZUJSYlT1OkD7qFAJJQrFXrIYIuiI/b96bbPL46/LNxfSK8HLL+RjQxELsd6ZQFbmfB6TKlStHe0vX3r//XX/5qegWpqbsThsN3d3W3k9pTk1IX5xYsLAYdzUPj/tXclXk0k6/5feue+e9959zkz12UW546ObIpsAoqIqICsQfYdQXYQZAfZtwDKHpCACGGTLRuLkJBACFm7k+5OJ8F3qipkGOa+GZ93RgYkJ4fTTVenu+tXX9XX3/L7MrPKKyrX1te1OC4SiwdYA4mJic9rnrPZ7IwnGZ0dnf29fW7OLnY2tg529tccrrq6uLi6uDg4OISFhTW3tChVKj1JAhOY2UxS5Pj4eEJCwvXr169cuXLt2lVn8HFycrru5ubq5ubKYDA4HI5cLgcVD0lCrVZtiDamZ6ZbWlri4+Pt7GxtbGzs7O0crzt63PRMTk3p7e/jCfgIbD1JkAYK6GvgvdMynx/C+ODuicUbUCLRsNwi9H5Cbh0Dhmm43MW6+tqQkKBvvrlQUlrMmZx42fVienpmYICVmJDU1to+0D/Y1tael/f0xcsuhUql0+s3RKL+gYHYuNi6uto3Y28S4hOaGhr7e3t9bns/uHc/wM/fydExnMHIePIkIyMjPT29+vnz+YUFhUpJ0QaKNmi02gHWAIMRFhEZkZiYkJmZkZ+fl5eXm52TlZmZccfH2+funbGxsa2tLZ0Ox3FsZJRdVlaamprCYIQ5uzj97b/+6njdMTgk+EnGk/yn+flPC7Jzc7LzcuubGjlTk0q1ijSAMpUH7ecHAT60fTLxBqRkJlDv28KrhCA3ArNaf39fezuzoCDPwcG2vr5WJNqQy3e0Wi2Pxy8vq8jNyU9OSo2Jjn/+vH5mdg7w8BHE+sZGT29vYFBQRkZGS3Nz5KOIhrr6IdZgBINRWVbe0tQcER7ObG2dmZ6eGB+vrq6urKwcHhnZkm0TFKkj9JItaVNTo7//g44OJpe7uC3bUihBlr9sZ1sk2sjJzQ4MDJientre3gJF49Wq2rqawMAAV1dnJydHBwc7G7srySnJzHbm9Oy0cGWZ2dH+MCjQ49bNyJjoViZTur1Nwpq3wEX/uco3UNSAnRw6xJAZ1Qj8jaRMts1iDbx5M9bZ2e7h4dbYWC+RiCkKMCXK5bvj4xMhwWF2tlddXdy7uno3JVt6EtRTXxeJ2jra7eztL1y4YG9n53f/QVtzy5vR19ERkW3NLay+fkZoaHlpaX1dXVJiYnp6emtb25ZMhul1FG3QEfq3c7NPMtIdHa8ODPTJdrYBkyJFEIQO12EqtbLoWWFwcODc/KxSBXgdtVrN8rKAwxlns1+NjAyz2a+GXg2+7HpZW1dbXFI8PTvD5fMmJidH34xNTk/xhYJdpUJPEogZ16qiH5Lpg7snUr73LB4wyIVoMoNaqugvjmvX1lZEonU2e/jmTfempnqJZNNopHFcx+cL6usbnJ3dvvry3I+XbdvbX2yINzG9nqTpjU3xy57uu76+ILG7sKiT2b7wdm52ajomMorZ3NLzssvr5s0AP7+4mNjsLPCCvrC4qCdJwkDpSEK2u1PXUBcTGx0eHjY7O4NhGsS9R8NIZ4VCXlxc9OgRg8/nqtTKXYV89u1M9fOqtLTUx4+Tk5Lio2MiQ0ODH/jd97jp4ejkGBgcFBkdFRUTHZeYkJic9CQzo6m1hcvn7Yu4ZQk/CPCh7c8Bb0CICWgSQYV2EE+u02EczoSnp3tjY71YLNLr9Twen8nsiI9PvHXL29nZzfv23dLSitdvxjckEjWOvRNt9LMGYuPimpqaJJubaqVKrVTNzcyGBgYV5uVXlZXf9b7jc9s7NDgkLzdvZHRUIpWSBgNO6De3pGMT47HxsbFxMc3NjWKxiCB0lIFEX8C7u7729Gl+TEzUyopQo1FtbUlevRpMTkny8fG+e9fb3d3t0qXv//KX/zh79qtzF86d+fLMf/7tr1989dVlmyuuN2543PT0ueebkZU5zpk4pKIfwvjg7snEGzlIAFcaZBeFoUsgMoA2kgSp0+mxySmOu4dbfX3t6uqyRLL59OnTgICHoaGMly+7pyZnhgbZjPCImPiEzu5u4doaVyjo7uuNjIpqa2sDBjgDjak1YyOjztccr9raPXzgV/e8treru6q8wtXFNTc/f/TNmFyhkMq2+wdZjIhH3j7e+QV5796t4jim02NKlUKpUigUcrF44/XrkbT0x7Gx0auryziu1evx7W3pEneRwxl/Mz7W19+blZ1ha3slNjb6cVpqcFiIrYP9fX//mvr6oeHhcc7E1Mw0XyjcVSpokxGWG7c4Rg8CfGj7pOKNCGVh9D5weNMwoNtoBmwoFEnqZ2enfe56Fz0rbGtrzcrKzM3Nraqq7u9nvXu3oVSot7dkAwOD1TW1oLhRWVljSzOzoyMhMbGrqxvHcBNtxNSayTfjAff9UhOTO9uYQp5AvCFaml9oamoqLCoqfFbU0NzU2s58WvwsmBFaWlHGmZzAMA1J6peWFmpqnz9OS01IjI+Liw4OCUpMSmhsrN/eliKwWaz+p0/z4+GUkJKSlJOTVVFR9uJlZ2NzY1ZOdkl5WWFx8ZPMzISkpLiE+JTHqRVVVbNzc4A8GUXJQJXtEMYHd0863jC6ARElA6ZcSJpM0+TKijAnN6upqbGxqTEqOorJZPJ4fI0GA/0Go721WnxufrG2oSE3P7+uAchTbV3d5OQkoSdMRqMOw5f5gqryijcjr3dlOwaCpCkDodMrlcqu7u7ikpKSstLndTUV1ZXPykoWuUtaTIsM+NPTk3n5uYGBAbCaOCglXllZvrg4j0aDRCLu6GCmpiYHBT0MDAyIj4+tr69dW1tZWV2enOK87O4SLAtHx17nFRSER0Q8DAoKC2fk5uePczg6ggA0L/sq+kGAD22fSLwt4S2I+xLpbjCy2CLoZjNNkLoduQyswyqlRLKpUqtJkgLBSfuvsTRtwnXErlK1I5crlEq1VitXKHAchyUiAC0iRRAqhUKv05lo4x5MzjebAEOqSq2WyXd2duWy3R3Z7o5cuYuMWrmHuQAADvNJREFU23t7oFo7hmlksi2JRCwSAe/25qZIodglCB3iX6YoQgUTGzY3RWLxhlS6qVDICUJHkHpch2u0Gp1er9Fqt3dkm1KJWLK5KZXIdnZwnQ4lnn3OeEP+bxB3uIfCtNGKvh+miMyrBshuDKxulrkQDX5wDmSHh7znJAXyDAzAn2ow0gaAtwkyp5qMBoo00jSKa0VE1kajiSRJSJRvKWhAGSjAPY9iJgHTPaXX62ATvV6vAxHsBgNk5AfRi8hpSxlIgtTrAM++jqIIg4EELIzAnAAyEWijEVCxUxT6orgoFFIHbxxGb31iKf6/L/eJ7Oe/uIFDsxra/UWrA/+wnAC4qCGrPCSoB9HfgEuVhusCiFGDwRSA8hplJZiAiMPQYxBYDvjuYRyzNapxDzBn0zScRkBQM/LroKhZNA8hs4EZUkugGFREzAtHLUwqsAbPHrjbP+3mUeH9kR2ytwdKQuwXDUB0+YA+HcWuIwxMJjNFAVI8mC4AUDQaaYLQG0ExBJCfYKE6h5zWKKXAejfQrwN8tdZAaYAxyCUCX5hYAiOPgRZiCZ89VnB/On+JtUs/fgPN6ha0IDJwOYCM1ZBRB+WdAEEGXzAsYGPglKPBCoDIs/fp0OGAMAHUwQfBBhab/RoIaAwZ0WIBDcBohj8o32je/vhH+uRnHif5RnhbXuwAmEisAUW12YyqHADwkGSDyjAQ8v1QCxNYalEhEziHH4xGRXij0rYG2gAoPCw/bjKaEGUqEO79nAJrRYX9ZfqTw/bRFzxOeEMtH+luyI8Opur9xdtSCQeuwaDeFIgLR1ZsSMYAEskAxw6AiqIIDAMUyQRBoPQU9P5A07RarcYwjCRJqCTAckOQZd1AU5ZaN4DRA133dD7/6FH3wSfuT+kAVpQODqnKCcoA1GY434KMLpo2kaQBlK+CszgScaBsGynKQGxsrA8NDdbV1a2urup0OpRBQpLk1vYWa5A18npUIBTqCFC/CmCMVm6Y3oYK3cBBY01QBSL+wbd/9A2Pn3zDak/gfZuk9Do9ptEopVtigZDHF3DVaiWGYSAeZkvG5wuFwhW1WovjOpgLroM16Eg9ga+urrS2tiYkJDCZzKWlJbVardVqV1dXB4eGikuKOzo7F5aWNJgW+DygSg+TVYEGB0YYTG87qKyd4v1HjWLLy7vJTOj1CoVcJF5fe7fC4y8OvRqoqiovKyudm3u7vLy8uMgdHHxVUVFVW1vH4/FXVlbX19c3N0U4riFIXK1RIrwZDEZwcHBFRcXCwgKPz29ta0tMSoqLj29ubVnicSVbUi2OwfRPpOWhihYAcqPRgPR8y+p9Kt9/EODwzcpIG2ihQNDQWB8RGX7X987NW+7u7s42Npd++OF7T08PHx8fb+87zs6uly79aGNje+eOz927d4OCAlMfJ8/McoTLvN7+7uiYSMfrjufOnTt79uyPP/7oduOGm/sNO3v77y5e/PbiRUcnJ/+HAemZGa/fjCnVKljg1QitK5ZgDWQj2s9QPp3P/yC0YQcD9Zs2bmys9/b1ZGVnxMRGMRjBfv73XFyvOzpeDQkJiY6OjoiIfPDA39nZ1c3NPTIyKjY2Nv1JWkVl2RJ3fmHxbV1DTWhYyL17vkFBgcHBwb6+vq5urg5XHW55eQWHhoSFMx4GBd339/ML8O/q7dlVKaHbA5Uss6rl+2lw+wL+hz3x7//Dx2v9Bh1sNptIithV7MwvvH0zPjrA6q2pq059nJyYFN/T08Vms1mswcbG5rS0JxkZWSzW4NTU5PKKcFexo9GqeILFhqba/Pzc6uqq4eFXIyPsxsaG1Mep4Y8ePSspHhp+NfJ6tK2dmZOf5x8Y0NPXq9ZqEd6g4CD4AiURLt4/g/z3h+UP+8VjhDfEGqrlej2+vCJIS0+57X3T4artFZtL33x34fzXZ6/YXLazs7O3d7C3v3rxu39+/fW3ly5dZjAY7e1MlVqp0aq4/MXntZW3vW9eu2bv7u7m5uZqa2dz4esLX/7jqx9+vOzs5urk5mrveM3h+rVbd26/6O5SatQWzweqSGmhjgE2O7iEW2BBcn4Ioz+nHnec8La6WEhSJxKv19RWhYQG3nB3iYhkxCfERkQyPDxvODk7eXndTkxMjotN8PW9f/bsufBH4d3dXRqtGtdp+IKl2vrq0LCgoKCHycmJ8Qlx/gF+Ti5O1xyv+d6/Fx0fF5eUGPKIcS/gga/f/a7eHqVGA/DeA69lgIjHYtQDlhdoc/0Z3ocAPrR7aDQc1e7xw9u8Z6IoQq3eXV7hN7c0ZGU/YY8MCQTcxcW5qqrKgoKCmppaHk/A4UzV1NT5+NytrKp6Ozer0ap0eo1AuFjf+DwzK72srITF6u/p7S4pLY6MiggLD8svLHjR09U3xKppakjLznwYGtwz0K/CtLTZZATEM4CxA7lZkNpoNcEiW80vRfwU739zTIP5HFGt6XSYQiETid/19XcXFuWXlBaNjg6vr69xuYsw6Wt+bm4+MzM7OjqWyWyfmZkRizdU6l2Ndndxaaa8osjd3eWKzWUnl+sO1+wv/vDdmX+c+e8v/n7h4jdXHGxtrzl8f+Xy9zY/unvdfNHbrcK1pNFAg3rQ+ws45PHZd6Odyve/iemvnQ7whkkL1MbG2gCrt+hZwaOIsNu3Pd09XIOCA5KSElJSkpOSkuLi4qMiox3sr9pcsY2MjEpNTS0sLGhqrufxF+bmp2rrK2NjI2PjovPyc3Lysh5FPfL08nTzvBESHpqRm5X9NC8uNSkwPOx+YEDv4IBahxE0RZsh3pBrC3i8IbeTyWSy3uy+nv4zQ9upfFv75+M2kC3VSBspLm+hqrrcP+C+q+t1eweby1f+ef78P86c+fv58+e++OKLv//3/3xx5svz576+9MNlZ2cXNzc3X1+fhMTYCc7oEvdtb/+Lru7OCc6YeHNjUyIaYg8VFBVk5WX1DPRuSMXSXdk8f+lFf09WQd7Y5IRah+kR3jAyCZlfYKYjwN2K6CneH4for5+1B4MODCYTheFq6ZZYuMybn5+Z4IwNDPRmZKb7+fnBN28/L6/bd318nxUVs1iD09PTCwvzfAF3dU0g2xFvbW+srHJXVvki8TvZztaWTMp+zS4sLszOy97He1u0LVkWrc3zl95JxUpMQ5poeg/4w02ISw8s5Ug//0maT/H+deQ+7ijMJjYbYAgzrsVUu4rtt3NTLa0N6ekpublZJSXFhYWFSUnJcXHxBQWF6ekZeXkg83tpaWF7W7Ijl46MsqprStPSE1MfJ6Y+Tk5NS0lKSQwMeejq4Xrd5bpfoF9iWnLyk9TE9JSEtOSEtJSCkmddA30y5a7eQMHASkAXaARp66B2uFW4T/W1j4PzN89C8zlNGfTy3W2BkDs+Mdra1pid8yQ4OKCysozNHm5oaMjLzS98WvTqFTs7OzcyMjonJ5fJbH39evjt3FRDY3VSSozvfS8fH6/b3rdu3vJw97xhf83+239+e/7bCzZXbd1ve3rcueVx55anj5eX7x1GdGRlXY14W4qTBL1nBqs4UBhBHpTZZD6YuX0q378J3kc0sMg3ZdDPzHJy8zK9bt+Ii4/qfMF8+3ZqY+PdyupKe0dHUdGz2to6iWRLJNqcnJyuqakJDHzoe+9OWnrSyChLuLIoXF5YWeEJhTweb2mRu/Cy52V2fk5qemp9S+Pk3PQcb4G7IhCsrfDXVlbFG9LdHcJgoExGOKXvgRez/VfwU7w/AsL/1ylo3QTV2aVS8fjEa2Z78zCbtbIqUKl2cVwrlUp7enrLyyuam1p2dxVaLb6zI+dyeX39vS9edoyODm1K3mG4Uq9XEwSmBzTZWpVaOTUzVVNfU1JR+mp0eEu+rcTVGj2mJXQYqccpgqApYGwB0ZBQvgHYUHMD1WJ/uvlT+f6pL36/LRChivJMaRq4sbWYCsc1FKWHYQ60Wq2ampru6+0fYY9qtRhFUQYDCG3W6XAM0+h0GpomzGbD3h79HgqqyWSkKHLt3dor9nAfq48r4OGEzmA20uBrMr6HZjXAwQJoPiFR5n4FKpDmCyC2PhrC27qLNg42OHToCHePkX3N0o2QUxzIOvJeQDhAh5tMJoIgMAzT6XRIn0I9DsEAjVHIKRw0Fm+H2WymKMrCuUkSkN/aYldBLSzt9n8C4Wr9e4SwffSljx3eB5/UGsQO/ommexS69K9k66fGVsDQKEE5A8BkhsT24OFf3T54K8dl+1jj/ZGd/KsgfujBj7z2UZ/2OeJ91H1+lNc/xfsoe//TX/sU70/f50d5xVO8j7L3P/21T/H+9H1+lFc8xfsoe//TX/sU70/f50d5xVO8f9b7/8pQ87MGx33npOGNzCVWVD4EP2ubXwYyWH/nxGycZLz/JX4IXeuwQG0QnKj45MHA0xMDs/VBThre1mgT6KcGhSitn4MY/xJ1dBSdBSsoWc87URsnE++DsB2C+aDQo0MH/6JA41O8j80YR3Ai2A6J7KFD6JGQi8zqP0WVx6wr+rF57A++0ZMm30iyrSJrlVdrDUmEuhVgwMlyIP7QevSDO/CYNTyBeKOqoKjuJw1rZpAUhXYpitLrEaMecJQfZMizLgFo45jB+MG3e9LwNhgMCoVicXFRIpGgGkNra2ura2uIiEcikczNzW1tbWngRyAUrq+va7VaRIqIYiVO9fMPHjxH3dBsNiuVSjab7e/vX1dXNzc3t7a2lgdLSs7MzAgEAiaT+eDBAyaTOT8PaovFxsUVFRUtLS1hGIYqQSOKxYO5I0f9TL/z9U+UfO/t7SkUiv7+fldX19LS0unpaaFQCDPK4sbHxxcXF2tqapydnWtra6empjgcTmBgYHp6+szMjEajQYyt1vX7pKpsJw1vjUbD4XBiYmI6OzsFAoFIJKqorCwrK1taWlpdXe3p6YmKju7r6wPR51xuTk5OTU0Nj8fDMMxKuYd0vd9ZrP40P3ei8H7//r3RaMRxXCKRIDo9giDkcrl8d5eAH7VaLZFKNRoN2pXJZHK5HMdxJNzotfsU7z/N4PyAG0Hv09bFGOXmW+FEb1/WlzQaslkflGx0hZM6mb9/f6z4cj8A7tMmv9EDJ20+/43H/ewPn+L9eQ2BU7xP8f68euDzetr/BXf25bHiPITpAAAAAElFTkSuQmCC;" vertex="1" parent="1">
          <mxGeometry x="93.75" y="510" width="132.5" height="253.76" as="geometry" />
        </mxCell>
        <mxCell id="BIjyKwn6PLJgD-Ix_rdq-18" value="" style="rounded=0;whiteSpace=wrap;html=1;movable=0;resizable=0;rotatable=0;deletable=0;editable=0;locked=1;connectable=0;" vertex="1" parent="1">
          <mxGeometry x="400" y="530" width="350" height="390" as="geometry" />
        </mxCell>
        <mxCell id="BIjyKwn6PLJgD-Ix_rdq-15" value="clickhouse：&lt;div&gt;&lt;span style=&quot;color: rgb(51, 51, 51); font-family: -apple-system, BlinkMacSystemFont, &amp;quot;Segoe UI&amp;quot;, &amp;quot;PingFang SC&amp;quot;, &amp;quot;Hiragino Sans GB&amp;quot;, &amp;quot;Microsoft YaHei&amp;quot;, &amp;quot;Helvetica Neue&amp;quot;, Helvetica, Arial, sans-serif; text-align: start; white-space: pre; background-color: rgb(255, 255, 255);&quot;&gt;cc-tj7s1m6875i7hi4v1.clickhouse.ads.aliyuncs.com&lt;/span&gt;&lt;/div&gt;" style="shape=datastore;whiteSpace=wrap;html=1;movable=0;resizable=0;rotatable=0;deletable=0;editable=0;locked=1;connectable=0;" vertex="1" parent="1">
          <mxGeometry x="414" y="680" width="310" height="110" as="geometry" />
        </mxCell>
        <mxCell id="BIjyKwn6PLJgD-Ix_rdq-16" value="MySql：阿里云rds&lt;div&gt;crms prod second&lt;br&gt;crms_prod first&lt;/div&gt;" style="shape=datastore;whiteSpace=wrap;html=1;movable=0;resizable=0;rotatable=0;deletable=0;editable=0;locked=1;connectable=0;" vertex="1" parent="1">
          <mxGeometry x="414" y="560" width="310" height="110" as="geometry" />
        </mxCell>
        <mxCell id="BIjyKwn6PLJgD-Ix_rdq-17" value="RabbitMQ&lt;br&gt;ES&lt;div&gt;Redis&lt;br&gt;Kafaka&lt;br&gt;ZooKeeper&amp;nbsp; 众安中间件申请&lt;/div&gt;" style="shape=datastore;whiteSpace=wrap;html=1;movable=0;resizable=0;rotatable=0;deletable=0;editable=0;locked=1;connectable=0;" vertex="1" parent="1">
          <mxGeometry x="414" y="790" width="310" height="110" as="geometry" />
        </mxCell>
        <mxCell id="BIjyKwn6PLJgD-Ix_rdq-24" value="" style="edgeStyle=orthogonalEdgeStyle;rounded=0;orthogonalLoop=1;jettySize=auto;html=1;" edge="1" parent="1" source="BIjyKwn6PLJgD-Ix_rdq-22" target="BIjyKwn6PLJgD-Ix_rdq-23">
          <mxGeometry relative="1" as="geometry" />
        </mxCell>
        <mxCell id="BIjyKwn6PLJgD-Ix_rdq-22" value="Python计算服务：&lt;br&gt;za-crms-pyserver-gunicorn&lt;br&gt;za-crms_pyserver-celery-worker" style="rounded=0;whiteSpace=wrap;html=1;" vertex="1" parent="1">
          <mxGeometry y="810" width="210" height="60" as="geometry" />
        </mxCell>
        <mxCell id="BIjyKwn6PLJgD-Ix_rdq-23" value="Oracle EBS&lt;br&gt;SQL SERVER" style="rounded=0;whiteSpace=wrap;html=1;" vertex="1" parent="1">
          <mxGeometry y="930" width="210" height="60" as="geometry" />
        </mxCell>
        <mxCell id="BIjyKwn6PLJgD-Ix_rdq-25" value="拉取&lt;br&gt;直接连接部署在科技的数据库" style="text;html=1;align=center;verticalAlign=middle;whiteSpace=wrap;rounded=0;" vertex="1" parent="1">
          <mxGeometry x="93.75" y="890" width="180" height="30" as="geometry" />
        </mxCell>
      </root>
    </mxGraphModel>
  </diagram>
</mxfile>
